<?xml version="1.0" encoding="utf-8" standalone="no"?>
<!DOCTYPE svg PUBLIC "-//W3C//DTD SVG 1.1//EN"
  "http://www.w3.org/Graphics/SVG/1.1/DTD/svg11.dtd">
<svg height="283.01742pt" version="1.1" viewBox="0 0 427.030084 283.01742" width="427.030084pt" xmlns="http://www.w3.org/2000/svg" xmlns:xlink="http://www.w3.org/1999/xlink">
 <metadata>
  <rdf:RDF xmlns:cc="http://creativecommons.org/ns#" xmlns:dc="http://purl.org/dc/elements/1.1/" xmlns:rdf="http://www.w3.org/1999/02/22-rdf-syntax-ns#">
   <cc:Work>
    <dc:type rdf:resource="http://purl.org/dc/dcmitype/StillImage"/>
    <dc:date>2021-11-18T16:07:04.822676</dc:date>
    <dc:format>image/svg+xml</dc:format>
    <dc:creator>
     <cc:Agent>
      <dc:title>Matplotlib v3.4.3, https://matplotlib.org/</dc:title>
     </cc:Agent>
    </dc:creator>
   </cc:Work>
  </rdf:RDF>
 </metadata>
 <defs>
  <style type="text/css">*{stroke-linecap:butt;stroke-linejoin:round;}</style>
 </defs>
 <g id="figure_1">
  <g id="patch_1">
   <path d="M 0 283.01742 
L 427.030084 283.01742 
L 427.030084 -0 
L 0 -0 
z
" style="fill:none;"/>
  </g>
  <g id="axes_1">
   <g id="patch_2">
    <path d="M 39.904212 263.31596 
L 419.830084 263.31596 
L 419.830084 20.373098 
L 39.904212 20.373098 
z
" style="fill:none;"/>
   </g>
   <g id="matplotlib.axis_1">
    <g id="text_1">
     <!-- Basic metaheuristics -->
     <g style="fill:#262626;" transform="translate(185.878336 273.957725)scale(0.096 -0.096)">
      <defs>
       <path d="M 333 4352 
L 333 4186 
C 774 4186 845 4186 845 3900 
L 845 452 
C 845 166 774 166 333 166 
L 333 0 
L 2534 0 
C 3354 0 3885 583 3885 1164 
C 3885 1741 3360 2233 2675 2233 
C 3290 2356 3718 2771 3718 3264 
C 3718 3802 3194 4352 2368 4352 
L 333 4352 
z
M 1248 2304 
L 1248 3937 
C 1248 4155 1261 4186 1517 4186 
L 2336 4186 
C 2970 4186 3251 3674 3251 3277 
C 3251 2791 2861 2304 2170 2304 
L 1248 2304 
z
M 1517 166 
C 1261 166 1248 197 1248 413 
L 1248 2202 
L 2432 2202 
C 3091 2202 3411 1625 3411 1162 
C 3411 699 3046 166 2349 166 
L 1517 166 
z
" id="CMR17-42" transform="scale(0.015625)"/>
       <path d="M 2304 1653 
C 2304 2072 2304 2294 2035 2543 
C 1798 2752 1523 2816 1306 2816 
C 800 2816 435 2407 435 1971 
C 435 1728 627 1728 666 1728 
C 749 1728 896 1778 896 1954 
C 896 2112 774 2181 666 2181 
C 640 2181 608 2174 589 2168 
C 723 2592 1069 2714 1293 2714 
C 1613 2714 1965 2429 1965 1885 
L 1965 1600 
C 1587 1600 1133 1549 774 1357 
C 371 1133 256 813 256 570 
C 256 77 832 -64 1171 -64 
C 1523 -64 1850 139 1990 511 
C 2003 233 2182 -18 2464 -18 
C 2598 -18 2938 70 2938 567 
L 2938 920 
L 2822 920 
L 2822 562 
C 2822 178 2650 128 2566 128 
C 2304 128 2304 458 2304 738 
L 2304 1653 
z
M 1965 870 
C 1965 317 1568 38 1216 38 
C 896 38 646 275 646 570 
C 646 761 730 1100 1101 1305 
C 1408 1478 1760 1504 1965 1504 
L 1965 870 
z
" id="CMR17-61" transform="scale(0.015625)"/>
       <path d="M 1978 2697 
C 1978 2813 1971 2819 1933 2819 
C 1907 2819 1901 2813 1824 2717 
C 1805 2691 1747 2626 1728 2601 
C 1523 2819 1235 2819 1126 2819 
C 416 2819 160 2447 160 2076 
C 160 1498 813 1365 998 1325 
C 1402 1243 1542 1217 1677 1101 
C 1760 1025 1901 884 1901 654 
C 1901 384 1747 38 1158 38 
C 602 38 403 460 288 1021 
C 269 1110 269 1117 218 1117 
C 166 1117 160 1110 160 983 
L 160 63 
C 160 -51 166 -58 205 -58 
C 237 -58 243 -51 275 0 
C 314 57 410 211 448 276 
C 576 103 800 -64 1158 -64 
C 1792 -64 2131 283 2131 784 
C 2131 1112 1958 1285 1875 1362 
C 1683 1561 1459 1606 1190 1657 
C 838 1735 390 1825 390 2217 
C 390 2383 480 2737 1126 2737 
C 1811 2737 1850 2094 1862 1888 
C 1869 1856 1901 1849 1920 1849 
C 1978 1849 1978 1869 1978 1978 
L 1978 2697 
z
" id="CMR17-73" transform="scale(0.015625)"/>
       <path d="M 992 3909 
C 992 4049 877 4170 730 4170 
C 589 4170 467 4056 467 3909 
C 467 3769 582 3648 730 3648 
C 870 3648 992 3763 992 3909 
z
M 243 2706 
L 243 2541 
C 602 2541 653 2502 653 2197 
L 653 427 
C 653 184 627 153 218 153 
L 218 -13 
C 371 0 646 0 806 0 
C 960 0 1222 0 1370 -13 
L 1370 153 
C 992 153 979 191 979 420 
L 979 2776 
L 243 2706 
z
" id="CMR17-69" transform="scale(0.015625)"/>
       <path d="M 2234 2240 
C 2112 2240 1933 2240 1933 2017 
C 1933 1838 2080 1787 2163 1787 
C 2208 1787 2394 1807 2394 2024 
C 2394 2467 1958 2803 1466 2803 
C 787 2803 211 2178 211 1363 
C 211 516 813 -64 1466 -64 
C 2259 -64 2458 677 2458 748 
C 2458 774 2451 793 2406 793 
C 2362 793 2355 787 2330 703 
C 2163 180 1798 51 1523 51 
C 1114 51 621 427 621 1369 
C 621 2338 1094 2688 1472 2688 
C 1722 2688 2093 2573 2234 2240 
z
" id="CMR17-63" transform="scale(0.015625)"/>
       <path d="M 4326 1933 
C 4326 2252 4269 2790 3507 2790 
C 3072 2790 2771 2496 2656 2151 
L 2650 2151 
C 2573 2676 2195 2790 1837 2790 
C 1331 2790 1069 2400 973 2144 
L 966 2144 
L 966 2790 
L 211 2720 
L 211 2554 
C 589 2554 646 2515 646 2208 
L 646 428 
C 646 184 621 153 211 153 
L 211 -13 
C 365 0 646 0 813 0 
C 979 0 1267 0 1421 -13 
L 1421 153 
C 1011 153 986 178 986 428 
L 986 1658 
C 986 2247 1344 2688 1792 2688 
C 2266 2688 2317 2266 2317 1958 
L 2317 428 
C 2317 184 2291 153 1882 153 
L 1882 -13 
C 2035 0 2317 0 2483 0 
C 2650 0 2938 0 3091 -13 
L 3091 153 
C 2682 153 2656 178 2656 428 
L 2656 1658 
C 2656 2247 3014 2688 3462 2688 
C 3936 2688 3987 2266 3987 1958 
L 3987 428 
C 3987 184 3962 153 3552 153 
L 3552 -13 
C 3706 0 3987 0 4154 0 
C 4320 0 4608 0 4762 -13 
L 4762 153 
C 4352 153 4326 178 4326 428 
L 4326 1933 
z
" id="CMR17-6d" transform="scale(0.015625)"/>
       <path d="M 2438 1472 
C 2464 1498 2464 1511 2464 1576 
C 2464 2238 2118 2816 1389 2816 
C 710 2816 173 2169 173 1383 
C 173 551 781 -64 1459 -64 
C 2176 -64 2458 607 2458 740 
C 2458 784 2419 784 2406 784 
C 2362 784 2355 771 2330 696 
C 2189 265 1837 51 1504 51 
C 1229 51 954 203 781 480 
C 582 803 582 1176 582 1472 
L 2438 1472 
z
M 589 1568 
C 634 2505 1126 2714 1382 2714 
C 1818 2714 2112 2297 2118 1568 
L 589 1568 
z
" id="CMR17-65" transform="scale(0.015625)"/>
       <path d="M 966 2560 
L 1862 2560 
L 1862 2725 
L 966 2725 
L 966 3904 
L 851 3904 
C 838 3245 614 2668 70 2668 
L 70 2560 
L 627 2560 
L 627 771 
C 627 650 627 -64 1370 -64 
C 1747 -64 1965 306 1965 777 
L 1965 1140 
L 1850 1140 
L 1850 783 
C 1850 344 1677 51 1408 51 
C 1222 51 966 178 966 758 
L 966 2560 
z
" id="CMR17-74" transform="scale(0.015625)"/>
       <path d="M 2656 1933 
C 2656 2259 2592 2790 1837 2790 
C 1312 2790 1056 2368 979 2157 
L 973 2157 
L 973 4396 
L 211 4326 
L 211 4160 
C 589 4160 646 4122 646 3817 
L 646 426 
C 646 184 621 153 211 153 
L 211 -13 
C 365 0 646 0 813 0 
C 979 0 1267 0 1421 -13 
L 1421 153 
C 1011 153 986 178 986 428 
L 986 1658 
C 986 2247 1344 2688 1792 2688 
C 2266 2688 2317 2266 2317 1958 
L 2317 428 
C 2317 184 2291 153 1882 153 
L 1882 -13 
C 2035 0 2317 0 2483 0 
C 2650 0 2938 0 3091 -13 
L 3091 153 
C 2682 153 2656 178 2656 428 
L 2656 1933 
z
" id="CMR17-68" transform="scale(0.015625)"/>
       <path d="M 1882 2693 
L 1882 2528 
C 2259 2528 2317 2489 2317 2186 
L 2317 1032 
C 2317 500 2029 38 1555 38 
C 1030 38 986 348 986 678 
L 986 2763 
L 211 2693 
L 211 2528 
C 467 2528 640 2528 646 2274 
L 646 1058 
C 646 633 646 361 813 183 
C 896 101 1056 -64 1517 -64 
C 2061 -64 2272 377 2323 506 
L 2330 506 
L 2330 -63 
L 3091 -63 
L 3091 128 
C 2714 128 2656 166 2656 473 
L 2656 2763 
L 1882 2693 
z
" id="CMR17-75" transform="scale(0.015625)"/>
       <path d="M 960 1497 
C 960 2112 1222 2688 1702 2688 
C 1747 2688 1792 2682 1837 2662 
C 1837 2662 1696 2617 1696 2452 
C 1696 2298 1818 2234 1914 2234 
C 1990 2234 2131 2279 2131 2458 
C 2131 2663 1926 2790 1709 2790 
C 1222 2790 1011 2317 947 2093 
L 941 2093 
L 941 2790 
L 198 2720 
L 198 2554 
C 576 2554 634 2515 634 2208 
L 634 428 
C 634 184 608 153 198 153 
L 198 -13 
C 352 0 646 0 813 0 
C 998 0 1325 0 1498 -13 
L 1498 153 
C 1037 153 960 153 960 440 
L 960 1497 
z
" id="CMR17-72" transform="scale(0.015625)"/>
      </defs>
      <use transform="scale(0.996264)" xlink:href="#CMR17-42"/>
      <use transform="translate(65.188754 0)scale(0.996264)" xlink:href="#CMR17-61"/>
      <use transform="translate(110.879232 0)scale(0.996264)" xlink:href="#CMR17-73"/>
      <use transform="translate(146.680569 0)scale(0.996264)" xlink:href="#CMR17-69"/>
      <use transform="translate(171.551628 0)scale(0.996264)" xlink:href="#CMR17-63"/>
      <use transform="translate(242.113254 0)scale(0.996264)" xlink:href="#CMR17-6d"/>
      <use transform="translate(319.032844 0)scale(0.996264)" xlink:href="#CMR17-65"/>
      <use transform="translate(359.518505 0)scale(0.996264)" xlink:href="#CMR17-74"/>
      <use transform="translate(394.799273 0)scale(0.996264)" xlink:href="#CMR17-61"/>
      <use transform="translate(440.48975 0)scale(0.996264)" xlink:href="#CMR17-68"/>
      <use transform="translate(491.38512 0)scale(0.996264)" xlink:href="#CMR17-65"/>
      <use transform="translate(531.87078 0)scale(0.996264)" xlink:href="#CMR17-75"/>
      <use transform="translate(582.76615 0)scale(0.996264)" xlink:href="#CMR17-72"/>
      <use transform="translate(618.046918 0)scale(0.996264)" xlink:href="#CMR17-69"/>
      <use transform="translate(642.917976 0)scale(0.996264)" xlink:href="#CMR17-73"/>
      <use transform="translate(678.719314 0)scale(0.996264)" xlink:href="#CMR17-74"/>
      <use transform="translate(714.000081 0)scale(0.996264)" xlink:href="#CMR17-69"/>
      <use transform="translate(738.87114 0)scale(0.996264)" xlink:href="#CMR17-63"/>
      <use transform="translate(779.3568 0)scale(0.996264)" xlink:href="#CMR17-73"/>
     </g>
    </g>
   </g>
   <g id="matplotlib.axis_2">
    <g id="ytick_1">
     <g id="line2d_1">
      <defs>
       <path d="M 0 0 
L -4.8 0 
" id="maf3f662baa" style="stroke:#262626;"/>
      </defs>
      <g>
       <use style="fill:#262626;stroke:#262626;" x="39.904212" xlink:href="#maf3f662baa" y="263.31596"/>
      </g>
     </g>
     <g id="text_2">
      <!-- $\mathdefault{0.0}$ -->
      <g style="fill:#262626;" transform="translate(19.70146 266.360102)scale(0.088 -0.088)">
       <defs>
        <path d="M 2688 2025 
C 2688 2416 2682 3080 2413 3591 
C 2176 4039 1798 4198 1466 4198 
C 1158 4198 768 4058 525 3597 
C 269 3118 243 2524 243 2025 
C 243 1661 250 1106 448 619 
C 723 -39 1216 -128 1466 -128 
C 1760 -128 2208 -7 2470 600 
C 2662 1042 2688 1559 2688 2025 
z
M 1466 -26 
C 1056 -26 813 325 723 812 
C 653 1188 653 1738 653 2096 
C 653 2588 653 2997 736 3387 
C 858 3929 1216 4096 1466 4096 
C 1728 4096 2067 3923 2189 3400 
C 2272 3036 2278 2607 2278 2096 
C 2278 1680 2278 1169 2202 792 
C 2067 95 1690 -26 1466 -26 
z
" id="CMR17-30" transform="scale(0.015625)"/>
        <path d="M 1178 307 
C 1178 492 1024 619 870 619 
C 685 619 557 466 557 313 
C 557 128 710 0 864 0 
C 1050 0 1178 153 1178 307 
z
" id="CMMI12-3a" transform="scale(0.015625)"/>
       </defs>
       <use transform="scale(0.996264)" xlink:href="#CMR17-30"/>
       <use transform="translate(45.690477 0)scale(0.996264)" xlink:href="#CMMI12-3a"/>
       <use transform="translate(72.787654 0)scale(0.996264)" xlink:href="#CMR17-30"/>
      </g>
     </g>
    </g>
    <g id="ytick_2">
     <g id="line2d_2">
      <g>
       <use style="fill:#262626;stroke:#262626;" x="39.904212" xlink:href="#maf3f662baa" y="217.041103"/>
      </g>
     </g>
     <g id="text_3">
      <!-- $\mathdefault{0.2}$ -->
      <g style="fill:#262626;" transform="translate(19.70146 220.085245)scale(0.088 -0.088)">
       <defs>
        <path d="M 2669 989 
L 2554 989 
C 2490 536 2438 459 2413 420 
C 2381 369 1920 369 1830 369 
L 602 369 
C 832 619 1280 1072 1824 1597 
C 2214 1967 2669 2402 2669 3035 
C 2669 3790 2067 4224 1395 4224 
C 691 4224 262 3604 262 3030 
C 262 2780 448 2748 525 2748 
C 589 2748 781 2787 781 3010 
C 781 3207 614 3264 525 3264 
C 486 3264 448 3258 422 3245 
C 544 3790 915 4058 1306 4058 
C 1862 4058 2227 3617 2227 3035 
C 2227 2479 1901 2000 1536 1584 
L 262 146 
L 262 0 
L 2515 0 
L 2669 989 
z
" id="CMR17-32" transform="scale(0.015625)"/>
       </defs>
       <use transform="scale(0.996264)" xlink:href="#CMR17-30"/>
       <use transform="translate(45.690477 0)scale(0.996264)" xlink:href="#CMMI12-3a"/>
       <use transform="translate(72.787654 0)scale(0.996264)" xlink:href="#CMR17-32"/>
      </g>
     </g>
    </g>
    <g id="ytick_3">
     <g id="line2d_3">
      <g>
       <use style="fill:#262626;stroke:#262626;" x="39.904212" xlink:href="#maf3f662baa" y="170.766246"/>
      </g>
     </g>
     <g id="text_4">
      <!-- $\mathdefault{0.4}$ -->
      <g style="fill:#262626;" transform="translate(19.70146 173.810388)scale(0.088 -0.088)">
       <defs>
        <path d="M 2150 4122 
C 2150 4256 2144 4256 2029 4256 
L 128 1254 
L 128 1088 
L 1779 1088 
L 1779 457 
C 1779 224 1766 160 1318 160 
L 1197 160 
L 1197 0 
C 1402 0 1747 0 1965 0 
C 2182 0 2528 0 2733 0 
L 2733 160 
L 2611 160 
C 2163 160 2150 224 2150 457 
L 2150 1088 
L 2803 1088 
L 2803 1254 
L 2150 1254 
L 2150 4122 
z
M 1798 3703 
L 1798 1254 
L 256 1254 
L 1798 3703 
z
" id="CMR17-34" transform="scale(0.015625)"/>
       </defs>
       <use transform="scale(0.996264)" xlink:href="#CMR17-30"/>
       <use transform="translate(45.690477 0)scale(0.996264)" xlink:href="#CMMI12-3a"/>
       <use transform="translate(72.787654 0)scale(0.996264)" xlink:href="#CMR17-34"/>
      </g>
     </g>
    </g>
    <g id="ytick_4">
     <g id="line2d_4">
      <g>
       <use style="fill:#262626;stroke:#262626;" x="39.904212" xlink:href="#maf3f662baa" y="124.491389"/>
      </g>
     </g>
     <g id="text_5">
      <!-- $\mathdefault{0.6}$ -->
      <g style="fill:#262626;" transform="translate(19.70146 127.535531)scale(0.088 -0.088)">
       <defs>
        <path d="M 678 2176 
C 678 3690 1395 4032 1811 4032 
C 1946 4032 2272 4009 2400 3776 
C 2298 3776 2106 3776 2106 3553 
C 2106 3381 2246 3323 2336 3323 
C 2394 3323 2566 3348 2566 3560 
C 2566 3954 2246 4179 1805 4179 
C 1043 4179 243 3390 243 1984 
C 243 253 966 -128 1478 -128 
C 2099 -128 2688 427 2688 1283 
C 2688 2081 2170 2662 1517 2662 
C 1126 2662 838 2407 678 1960 
L 678 2176 
z
M 1478 25 
C 691 25 691 1200 691 1436 
C 691 1896 909 2560 1504 2560 
C 1613 2560 1926 2560 2138 2120 
C 2253 1870 2253 1609 2253 1289 
C 2253 944 2253 690 2118 434 
C 1978 171 1773 25 1478 25 
z
" id="CMR17-36" transform="scale(0.015625)"/>
       </defs>
       <use transform="scale(0.996264)" xlink:href="#CMR17-30"/>
       <use transform="translate(45.690477 0)scale(0.996264)" xlink:href="#CMMI12-3a"/>
       <use transform="translate(72.787654 0)scale(0.996264)" xlink:href="#CMR17-36"/>
      </g>
     </g>
    </g>
    <g id="ytick_5">
     <g id="line2d_5">
      <g>
       <use style="fill:#262626;stroke:#262626;" x="39.904212" xlink:href="#maf3f662baa" y="78.216532"/>
      </g>
     </g>
     <g id="text_6">
      <!-- $\mathdefault{0.8}$ -->
      <g style="fill:#262626;" transform="translate(19.70146 81.260674)scale(0.088 -0.088)">
       <defs>
        <path d="M 1741 2264 
C 2144 2467 2554 2773 2554 3263 
C 2554 3841 1990 4179 1472 4179 
C 890 4179 378 3759 378 3180 
C 378 3021 416 2747 666 2505 
C 730 2442 998 2251 1171 2130 
C 883 1983 211 1634 211 934 
C 211 279 838 -128 1459 -128 
C 2144 -128 2720 362 2720 1010 
C 2720 1590 2330 1857 2074 2029 
L 1741 2264 
z
M 902 2822 
C 851 2854 595 3051 595 3351 
C 595 3739 998 4032 1459 4032 
C 1965 4032 2336 3676 2336 3262 
C 2336 2669 1670 2331 1638 2331 
C 1632 2331 1626 2331 1574 2370 
L 902 2822 
z
M 2080 1519 
C 2176 1449 2483 1240 2483 851 
C 2483 381 2010 25 1472 25 
C 890 25 448 438 448 940 
C 448 1443 838 1862 1280 2060 
L 2080 1519 
z
" id="CMR17-38" transform="scale(0.015625)"/>
       </defs>
       <use transform="scale(0.996264)" xlink:href="#CMR17-30"/>
       <use transform="translate(45.690477 0)scale(0.996264)" xlink:href="#CMMI12-3a"/>
       <use transform="translate(72.787654 0)scale(0.996264)" xlink:href="#CMR17-38"/>
      </g>
     </g>
    </g>
    <g id="ytick_6">
     <g id="line2d_6">
      <g>
       <use style="fill:#262626;stroke:#262626;" x="39.904212" xlink:href="#maf3f662baa" y="31.941675"/>
      </g>
     </g>
     <g id="text_7">
      <!-- $\mathdefault{1.0}$ -->
      <g style="fill:#262626;" transform="translate(19.70146 34.985817)scale(0.088 -0.088)">
       <defs>
        <path d="M 1702 4058 
C 1702 4192 1696 4192 1606 4192 
C 1357 3916 979 3827 621 3827 
C 602 3827 570 3827 563 3808 
C 557 3795 557 3782 557 3648 
C 755 3648 1088 3686 1344 3839 
L 1344 461 
C 1344 236 1331 160 781 160 
L 589 160 
L 589 0 
C 896 0 1216 0 1523 0 
C 1830 0 2150 0 2458 0 
L 2458 160 
L 2266 160 
C 1715 160 1702 230 1702 458 
L 1702 4058 
z
" id="CMR17-31" transform="scale(0.015625)"/>
       </defs>
       <use transform="scale(0.996264)" xlink:href="#CMR17-31"/>
       <use transform="translate(45.690477 0)scale(0.996264)" xlink:href="#CMMI12-3a"/>
       <use transform="translate(72.787654 0)scale(0.996264)" xlink:href="#CMR17-30"/>
      </g>
     </g>
    </g>
    <g id="text_8">
     <!-- $p$-value -->
     <g style="fill:#262626;" transform="translate(13.841765 157.010329)rotate(-90)scale(0.096 -0.096)">
      <defs>
       <path d="M 275 -789 
C 230 -980 205 -1031 -58 -1031 
C -134 -1031 -198 -1031 -198 -1152 
C -198 -1165 -192 -1216 -122 -1216 
C -38 -1216 51 -1216 134 -1216 
L 410 -1216 
C 544 -1216 870 -1216 1005 -1216 
C 1043 -1216 1120 -1216 1120 -1101 
C 1120 -1031 1075 -1031 966 -1031 
C 672 -1031 653 -987 653 -937 
C 653 -861 941 219 979 364 
C 1050 185 1222 -64 1555 -64 
C 2278 -64 3059 875 3059 1814 
C 3059 2401 2726 2816 2246 2816 
C 1837 2816 1491 2420 1421 2331 
C 1370 2650 1120 2816 864 2816 
C 678 2816 531 2727 410 2484 
C 294 2254 205 1865 205 1839 
C 205 1814 230 1782 275 1782 
C 326 1782 333 1788 371 1935 
C 467 2312 589 2689 845 2689 
C 992 2689 1043 2587 1043 2397 
C 1043 2245 1024 2181 998 2067 
L 275 -789 
z
M 1382 1993 
C 1427 2171 1606 2357 1709 2446 
C 1779 2510 1990 2689 2234 2689 
C 2515 2689 2643 2408 2643 2076 
C 2643 1769 2464 1047 2304 715 
C 2144 370 1850 64 1555 64 
C 1120 64 1050 613 1050 639 
C 1050 658 1062 709 1069 741 
L 1382 1993 
z
" id="CMMI12-70" transform="scale(0.015625)"/>
       <path d="M 1632 1216 
L 1632 1496 
L 26 1496 
L 26 1216 
L 1632 1216 
z
" id="CMR17-2d" transform="scale(0.015625)"/>
       <path d="M 2502 2163 
C 2560 2304 2662 2560 3034 2560 
L 3034 2726 
C 2912 2726 2752 2726 2630 2726 
C 2496 2726 2285 2726 2157 2732 
L 2157 2566 
C 2317 2553 2406 2477 2406 2311 
C 2406 2253 2406 2240 2368 2151 
L 1664 377 
L 902 2286 
C 864 2369 864 2381 864 2407 
C 864 2560 1075 2560 1171 2560 
L 1171 2732 
C 1018 2726 736 2726 576 2726 
C 403 2726 205 2726 64 2732 
L 64 2560 
C 307 2560 442 2560 518 2362 
L 1446 44 
C 1485 -51 1491 -64 1549 -64 
C 1606 -64 1613 -51 1651 44 
L 2502 2163 
z
" id="CMR17-76" transform="scale(0.015625)"/>
       <path d="M 979 4396 
L 218 4326 
L 218 4160 
C 595 4160 653 4122 653 3817 
L 653 426 
C 653 184 627 153 218 153 
L 218 -13 
C 371 0 653 0 813 0 
C 979 0 1261 0 1414 -13 
L 1414 153 
C 1005 153 979 178 979 426 
L 979 4396 
z
" id="CMR17-6c" transform="scale(0.015625)"/>
      </defs>
      <use transform="scale(0.996264)" xlink:href="#CMMI12-70"/>
      <use transform="translate(48.959514 0)scale(0.996264)" xlink:href="#CMR17-2d"/>
      <use transform="translate(79.03548 0)scale(0.996264)" xlink:href="#CMR17-76"/>
      <use transform="translate(122.12358 0)scale(0.996264)" xlink:href="#CMR17-61"/>
      <use transform="translate(167.814057 0)scale(0.996264)" xlink:href="#CMR17-6c"/>
      <use transform="translate(192.685115 0)scale(0.996264)" xlink:href="#CMR17-75"/>
      <use transform="translate(243.580485 0)scale(0.996264)" xlink:href="#CMR17-65"/>
     </g>
    </g>
   </g>
   <g id="patch_3">
    <path clip-path="url(#pfe0113ec92)" d="M 40.479858 263.31596 
L 45.08502 263.31596 
L 45.08502 263.31596 
L 40.479858 263.31596 
z
" style="fill:#3274a1;stroke:#ffffff;stroke-linejoin:miter;stroke-width:0.8;"/>
   </g>
   <g id="patch_4">
    <path clip-path="url(#pfe0113ec92)" d="M 46.23631 263.31596 
L 50.841472 263.31596 
L 50.841472 263.31596 
L 46.23631 263.31596 
z
" style="fill:#e1812c;stroke:#ffffff;stroke-linejoin:miter;stroke-width:0.8;"/>
   </g>
   <g id="patch_5">
    <path clip-path="url(#pfe0113ec92)" d="M 51.992763 263.31596 
L 56.597925 263.31596 
L 56.597925 263.31596 
L 51.992763 263.31596 
z
" style="fill:#3a923a;stroke:#ffffff;stroke-linejoin:miter;stroke-width:0.8;"/>
   </g>
   <g id="patch_6">
    <path clip-path="url(#pfe0113ec92)" d="M 57.749215 263.31596 
L 62.354377 263.31596 
L 62.354377 263.31596 
L 57.749215 263.31596 
z
" style="fill:#c03d3e;stroke:#ffffff;stroke-linejoin:miter;stroke-width:0.8;"/>
   </g>
   <g id="patch_7">
    <path clip-path="url(#pfe0113ec92)" d="M 63.505668 263.31596 
L 68.11083 263.31596 
L 68.11083 263.31596 
L 63.505668 263.31596 
z
" style="fill:#9372b2;stroke:#ffffff;stroke-linejoin:miter;stroke-width:0.8;"/>
   </g>
   <g id="patch_8">
    <path clip-path="url(#pfe0113ec92)" d="M 69.262121 263.31596 
L 73.867283 263.31596 
L 73.867283 263.31596 
L 69.262121 263.31596 
z
" style="fill:#845b53;stroke:#ffffff;stroke-linejoin:miter;stroke-width:0.8;"/>
   </g>
   <g id="patch_9">
    <path clip-path="url(#pfe0113ec92)" d="M 75.018573 263.31596 
L 79.623735 263.31596 
L 79.623735 263.31596 
L 75.018573 263.31596 
z
" style="fill:#d684bd;stroke:#ffffff;stroke-linejoin:miter;stroke-width:0.8;"/>
   </g>
   <g id="patch_10">
    <path clip-path="url(#pfe0113ec92)" d="M 80.775026 263.31596 
L 85.380188 263.31596 
L 85.380188 263.31596 
L 80.775026 263.31596 
z
" style="fill:#7f7f7f;stroke:#ffffff;stroke-linejoin:miter;stroke-width:0.8;"/>
   </g>
   <g id="patch_11">
    <path clip-path="url(#pfe0113ec92)" d="M 86.531478 263.31596 
L 91.13664 263.31596 
L 91.13664 263.31596 
L 86.531478 263.31596 
z
" style="fill:#a9aa35;stroke:#ffffff;stroke-linejoin:miter;stroke-width:0.8;"/>
   </g>
   <g id="patch_12">
    <path clip-path="url(#pfe0113ec92)" d="M 92.287931 263.31596 
L 96.893093 263.31596 
L 96.893093 263.31596 
L 92.287931 263.31596 
z
" style="fill:#2eabb8;stroke:#ffffff;stroke-linejoin:miter;stroke-width:0.8;"/>
   </g>
   <g id="patch_13">
    <path clip-path="url(#pfe0113ec92)" d="M 98.044384 263.31596 
L 102.649546 263.31596 
L 102.649546 263.31596 
L 98.044384 263.31596 
z
" style="fill:#3274a1;stroke:#ffffff;stroke-linejoin:miter;stroke-width:0.8;"/>
   </g>
   <g id="patch_14">
    <path clip-path="url(#pfe0113ec92)" d="M 103.800836 263.31596 
L 108.405998 263.31596 
L 108.405998 263.31596 
L 103.800836 263.31596 
z
" style="fill:#e1812c;stroke:#ffffff;stroke-linejoin:miter;stroke-width:0.8;"/>
   </g>
   <g id="patch_15">
    <path clip-path="url(#pfe0113ec92)" d="M 109.557289 263.31596 
L 114.162451 263.31596 
L 114.162451 263.31596 
L 109.557289 263.31596 
z
" style="fill:#3a923a;stroke:#ffffff;stroke-linejoin:miter;stroke-width:0.8;"/>
   </g>
   <g id="patch_16">
    <path clip-path="url(#pfe0113ec92)" d="M 115.313741 263.31596 
L 119.918903 263.31596 
L 119.918903 263.31596 
L 115.313741 263.31596 
z
" style="fill:#c03d3e;stroke:#ffffff;stroke-linejoin:miter;stroke-width:0.8;"/>
   </g>
   <g id="patch_17">
    <path clip-path="url(#pfe0113ec92)" d="M 121.070194 263.31596 
L 125.675356 263.31596 
L 125.675356 263.31596 
L 121.070194 263.31596 
z
" style="fill:#9372b2;stroke:#ffffff;stroke-linejoin:miter;stroke-width:0.8;"/>
   </g>
   <g id="patch_18">
    <path clip-path="url(#pfe0113ec92)" d="M 126.826647 263.31596 
L 131.431809 263.31596 
L 131.431809 263.31596 
L 126.826647 263.31596 
z
" style="fill:#845b53;stroke:#ffffff;stroke-linejoin:miter;stroke-width:0.8;"/>
   </g>
   <g id="patch_19">
    <path clip-path="url(#pfe0113ec92)" d="M 132.583099 263.31596 
L 137.188261 263.31596 
L 137.188261 263.31596 
L 132.583099 263.31596 
z
" style="fill:#d684bd;stroke:#ffffff;stroke-linejoin:miter;stroke-width:0.8;"/>
   </g>
   <g id="patch_20">
    <path clip-path="url(#pfe0113ec92)" d="M 138.339552 263.31596 
L 142.944714 263.31596 
L 142.944714 263.31596 
L 138.339552 263.31596 
z
" style="fill:#7f7f7f;stroke:#ffffff;stroke-linejoin:miter;stroke-width:0.8;"/>
   </g>
   <g id="patch_21">
    <path clip-path="url(#pfe0113ec92)" d="M 144.096004 263.31596 
L 148.701166 263.31596 
L 148.701166 263.31596 
L 144.096004 263.31596 
z
" style="fill:#a9aa35;stroke:#ffffff;stroke-linejoin:miter;stroke-width:0.8;"/>
   </g>
   <g id="patch_22">
    <path clip-path="url(#pfe0113ec92)" d="M 149.852457 263.31596 
L 154.457619 263.31596 
L 154.457619 263.31596 
L 149.852457 263.31596 
z
" style="fill:#2eabb8;stroke:#ffffff;stroke-linejoin:miter;stroke-width:0.8;"/>
   </g>
   <g id="patch_23">
    <path clip-path="url(#pfe0113ec92)" d="M 155.60891 263.31596 
L 160.214072 263.31596 
L 160.214072 263.31596 
L 155.60891 263.31596 
z
" style="fill:#3274a1;stroke:#ffffff;stroke-linejoin:miter;stroke-width:0.8;"/>
   </g>
   <g id="patch_24">
    <path clip-path="url(#pfe0113ec92)" d="M 161.365362 263.31596 
L 165.970524 263.31596 
L 165.970524 263.31596 
L 161.365362 263.31596 
z
" style="fill:#e1812c;stroke:#ffffff;stroke-linejoin:miter;stroke-width:0.8;"/>
   </g>
   <g id="patch_25">
    <path clip-path="url(#pfe0113ec92)" d="M 167.121815 263.31596 
L 171.726977 263.31596 
L 171.726977 263.31596 
L 167.121815 263.31596 
z
" style="fill:#3a923a;stroke:#ffffff;stroke-linejoin:miter;stroke-width:0.8;"/>
   </g>
   <g id="patch_26">
    <path clip-path="url(#pfe0113ec92)" d="M 172.878267 263.31596 
L 177.483429 263.31596 
L 177.483429 263.31596 
L 172.878267 263.31596 
z
" style="fill:#c03d3e;stroke:#ffffff;stroke-linejoin:miter;stroke-width:0.8;"/>
   </g>
   <g id="patch_27">
    <path clip-path="url(#pfe0113ec92)" d="M 178.63472 263.31596 
L 183.239882 263.31596 
L 183.239882 263.31596 
L 178.63472 263.31596 
z
" style="fill:#9372b2;stroke:#ffffff;stroke-linejoin:miter;stroke-width:0.8;"/>
   </g>
   <g id="patch_28">
    <path clip-path="url(#pfe0113ec92)" d="M 184.391173 263.31596 
L 188.996335 263.31596 
L 188.996335 263.31596 
L 184.391173 263.31596 
z
" style="fill:#845b53;stroke:#ffffff;stroke-linejoin:miter;stroke-width:0.8;"/>
   </g>
   <g id="patch_29">
    <path clip-path="url(#pfe0113ec92)" d="M 190.147625 263.31596 
L 194.752787 263.31596 
L 194.752787 263.31596 
L 190.147625 263.31596 
z
" style="fill:#d684bd;stroke:#ffffff;stroke-linejoin:miter;stroke-width:0.8;"/>
   </g>
   <g id="patch_30">
    <path clip-path="url(#pfe0113ec92)" d="M 195.904078 263.31596 
L 200.50924 263.31596 
L 200.50924 263.31596 
L 195.904078 263.31596 
z
" style="fill:#7f7f7f;stroke:#ffffff;stroke-linejoin:miter;stroke-width:0.8;"/>
   </g>
   <g id="patch_31">
    <path clip-path="url(#pfe0113ec92)" d="M 201.66053 263.31596 
L 206.265692 263.31596 
L 206.265692 263.31596 
L 201.66053 263.31596 
z
" style="fill:#a9aa35;stroke:#ffffff;stroke-linejoin:miter;stroke-width:0.8;"/>
   </g>
   <g id="patch_32">
    <path clip-path="url(#pfe0113ec92)" d="M 207.416983 263.31596 
L 212.022145 263.31596 
L 212.022145 263.31596 
L 207.416983 263.31596 
z
" style="fill:#2eabb8;stroke:#ffffff;stroke-linejoin:miter;stroke-width:0.8;"/>
   </g>
   <g id="patch_33">
    <path clip-path="url(#pfe0113ec92)" d="M 213.173436 263.31596 
L 217.778598 263.31596 
L 217.778598 263.31596 
L 213.173436 263.31596 
z
" style="fill:#3274a1;stroke:#ffffff;stroke-linejoin:miter;stroke-width:0.8;"/>
   </g>
   <g id="patch_34">
    <path clip-path="url(#pfe0113ec92)" d="M 218.929888 263.31596 
L 223.53505 263.31596 
L 223.53505 263.31596 
L 218.929888 263.31596 
z
" style="fill:#e1812c;stroke:#ffffff;stroke-linejoin:miter;stroke-width:0.8;"/>
   </g>
   <g id="patch_35">
    <path clip-path="url(#pfe0113ec92)" d="M 224.686341 263.31596 
L 229.291503 263.31596 
L 229.291503 263.31596 
L 224.686341 263.31596 
z
" style="fill:#3a923a;stroke:#ffffff;stroke-linejoin:miter;stroke-width:0.8;"/>
   </g>
   <g id="patch_36">
    <path clip-path="url(#pfe0113ec92)" d="M 230.442793 263.31596 
L 235.047955 263.31596 
L 235.047955 263.31596 
L 230.442793 263.31596 
z
" style="fill:#c03d3e;stroke:#ffffff;stroke-linejoin:miter;stroke-width:0.8;"/>
   </g>
   <g id="patch_37">
    <path clip-path="url(#pfe0113ec92)" d="M 236.199246 263.31596 
L 240.804408 263.31596 
L 240.804408 263.31596 
L 236.199246 263.31596 
z
" style="fill:#9372b2;stroke:#ffffff;stroke-linejoin:miter;stroke-width:0.8;"/>
   </g>
   <g id="patch_38">
    <path clip-path="url(#pfe0113ec92)" d="M 241.955699 263.31596 
L 246.560861 263.31596 
L 246.560861 263.31596 
L 241.955699 263.31596 
z
" style="fill:#845b53;stroke:#ffffff;stroke-linejoin:miter;stroke-width:0.8;"/>
   </g>
   <g id="patch_39">
    <path clip-path="url(#pfe0113ec92)" d="M 247.712151 263.31596 
L 252.317313 263.31596 
L 252.317313 263.31596 
L 247.712151 263.31596 
z
" style="fill:#d684bd;stroke:#ffffff;stroke-linejoin:miter;stroke-width:0.8;"/>
   </g>
   <g id="patch_40">
    <path clip-path="url(#pfe0113ec92)" d="M 253.468604 263.31596 
L 258.073766 263.31596 
L 258.073766 263.31596 
L 253.468604 263.31596 
z
" style="fill:#7f7f7f;stroke:#ffffff;stroke-linejoin:miter;stroke-width:0.8;"/>
   </g>
   <g id="patch_41">
    <path clip-path="url(#pfe0113ec92)" d="M 259.225056 263.31596 
L 263.830218 263.31596 
L 263.830218 263.31596 
L 259.225056 263.31596 
z
" style="fill:#a9aa35;stroke:#ffffff;stroke-linejoin:miter;stroke-width:0.8;"/>
   </g>
   <g id="patch_42">
    <path clip-path="url(#pfe0113ec92)" d="M 264.981509 263.31596 
L 269.586671 263.31596 
L 269.586671 263.31596 
L 264.981509 263.31596 
z
" style="fill:#2eabb8;stroke:#ffffff;stroke-linejoin:miter;stroke-width:0.8;"/>
   </g>
   <g id="patch_43">
    <path clip-path="url(#pfe0113ec92)" d="M 270.737962 263.31596 
L 275.343124 263.31596 
L 275.343124 263.31596 
L 270.737962 263.31596 
z
" style="fill:#3274a1;stroke:#ffffff;stroke-linejoin:miter;stroke-width:0.8;"/>
   </g>
   <g id="patch_44">
    <path clip-path="url(#pfe0113ec92)" d="M 276.494414 263.31596 
L 281.099576 263.31596 
L 281.099576 263.31596 
L 276.494414 263.31596 
z
" style="fill:#e1812c;stroke:#ffffff;stroke-linejoin:miter;stroke-width:0.8;"/>
   </g>
   <g id="patch_45">
    <path clip-path="url(#pfe0113ec92)" d="M 282.250867 263.31596 
L 286.856029 263.31596 
L 286.856029 263.31596 
L 282.250867 263.31596 
z
" style="fill:#3a923a;stroke:#ffffff;stroke-linejoin:miter;stroke-width:0.8;"/>
   </g>
   <g id="patch_46">
    <path clip-path="url(#pfe0113ec92)" d="M 288.007319 263.31596 
L 292.612481 263.31596 
L 292.612481 263.31596 
L 288.007319 263.31596 
z
" style="fill:#c03d3e;stroke:#ffffff;stroke-linejoin:miter;stroke-width:0.8;"/>
   </g>
   <g id="patch_47">
    <path clip-path="url(#pfe0113ec92)" d="M 293.763772 263.31596 
L 298.368934 263.31596 
L 298.368934 263.31596 
L 293.763772 263.31596 
z
" style="fill:#9372b2;stroke:#ffffff;stroke-linejoin:miter;stroke-width:0.8;"/>
   </g>
   <g id="patch_48">
    <path clip-path="url(#pfe0113ec92)" d="M 299.520225 263.31596 
L 304.125387 263.31596 
L 304.125387 263.31596 
L 299.520225 263.31596 
z
" style="fill:#845b53;stroke:#ffffff;stroke-linejoin:miter;stroke-width:0.8;"/>
   </g>
   <g id="patch_49">
    <path clip-path="url(#pfe0113ec92)" d="M 305.276677 263.31596 
L 309.881839 263.31596 
L 309.881839 263.31596 
L 305.276677 263.31596 
z
" style="fill:#d684bd;stroke:#ffffff;stroke-linejoin:miter;stroke-width:0.8;"/>
   </g>
   <g id="patch_50">
    <path clip-path="url(#pfe0113ec92)" d="M 311.03313 263.31596 
L 315.638292 263.31596 
L 315.638292 263.31596 
L 311.03313 263.31596 
z
" style="fill:#7f7f7f;stroke:#ffffff;stroke-linejoin:miter;stroke-width:0.8;"/>
   </g>
   <g id="patch_51">
    <path clip-path="url(#pfe0113ec92)" d="M 316.789582 263.31596 
L 321.394744 263.31596 
L 321.394744 263.31596 
L 316.789582 263.31596 
z
" style="fill:#a9aa35;stroke:#ffffff;stroke-linejoin:miter;stroke-width:0.8;"/>
   </g>
   <g id="patch_52">
    <path clip-path="url(#pfe0113ec92)" d="M 322.546035 263.31596 
L 327.151197 263.31596 
L 327.151197 263.31596 
L 322.546035 263.31596 
z
" style="fill:#2eabb8;stroke:#ffffff;stroke-linejoin:miter;stroke-width:0.8;"/>
   </g>
   <g id="patch_53">
    <path clip-path="url(#pfe0113ec92)" d="M 328.302487 263.31596 
L 332.90765 263.31596 
L 332.90765 263.31596 
L 328.302487 263.31596 
z
" style="fill:#3274a1;stroke:#ffffff;stroke-linejoin:miter;stroke-width:0.8;"/>
   </g>
   <g id="patch_54">
    <path clip-path="url(#pfe0113ec92)" d="M 334.05894 263.31596 
L 338.664102 263.31596 
L 338.664102 263.31596 
L 334.05894 263.31596 
z
" style="fill:#e1812c;stroke:#ffffff;stroke-linejoin:miter;stroke-width:0.8;"/>
   </g>
   <g id="patch_55">
    <path clip-path="url(#pfe0113ec92)" d="M 339.815393 263.31596 
L 344.420555 263.31596 
L 344.420555 263.31596 
L 339.815393 263.31596 
z
" style="fill:#3a923a;stroke:#ffffff;stroke-linejoin:miter;stroke-width:0.8;"/>
   </g>
   <g id="patch_56">
    <path clip-path="url(#pfe0113ec92)" d="M 345.571845 263.31596 
L 350.177007 263.31596 
L 350.177007 263.31596 
L 345.571845 263.31596 
z
" style="fill:#c03d3e;stroke:#ffffff;stroke-linejoin:miter;stroke-width:0.8;"/>
   </g>
   <g id="patch_57">
    <path clip-path="url(#pfe0113ec92)" d="M 351.328298 263.31596 
L 355.93346 263.31596 
L 355.93346 263.31596 
L 351.328298 263.31596 
z
" style="fill:#9372b2;stroke:#ffffff;stroke-linejoin:miter;stroke-width:0.8;"/>
   </g>
   <g id="patch_58">
    <path clip-path="url(#pfe0113ec92)" d="M 357.08475 263.31596 
L 361.689913 263.31596 
L 361.689913 263.31596 
L 357.08475 263.31596 
z
" style="fill:#845b53;stroke:#ffffff;stroke-linejoin:miter;stroke-width:0.8;"/>
   </g>
   <g id="patch_59">
    <path clip-path="url(#pfe0113ec92)" d="M 362.841203 263.31596 
L 367.446365 263.31596 
L 367.446365 263.31596 
L 362.841203 263.31596 
z
" style="fill:#d684bd;stroke:#ffffff;stroke-linejoin:miter;stroke-width:0.8;"/>
   </g>
   <g id="patch_60">
    <path clip-path="url(#pfe0113ec92)" d="M 368.597656 263.31596 
L 373.202818 263.31596 
L 373.202818 263.31596 
L 368.597656 263.31596 
z
" style="fill:#7f7f7f;stroke:#ffffff;stroke-linejoin:miter;stroke-width:0.8;"/>
   </g>
   <g id="patch_61">
    <path clip-path="url(#pfe0113ec92)" d="M 374.354108 263.31596 
L 378.95927 263.31596 
L 378.95927 263.31596 
L 374.354108 263.31596 
z
" style="fill:#a9aa35;stroke:#ffffff;stroke-linejoin:miter;stroke-width:0.8;"/>
   </g>
   <g id="patch_62">
    <path clip-path="url(#pfe0113ec92)" d="M 380.110561 263.31596 
L 384.715723 263.31596 
L 384.715723 263.31596 
L 380.110561 263.31596 
z
" style="fill:#2eabb8;stroke:#ffffff;stroke-linejoin:miter;stroke-width:0.8;"/>
   </g>
   <g id="patch_63">
    <path clip-path="url(#pfe0113ec92)" d="M 385.867013 263.31596 
L 390.472176 263.31596 
L 390.472176 263.31596 
L 385.867013 263.31596 
z
" style="fill:#3274a1;stroke:#ffffff;stroke-linejoin:miter;stroke-width:0.8;"/>
   </g>
   <g id="patch_64">
    <path clip-path="url(#pfe0113ec92)" d="M 391.623466 263.31596 
L 396.228628 263.31596 
L 396.228628 31.941806 
L 391.623466 31.941806 
z
" style="fill:#e1812c;stroke:#ffffff;stroke-linejoin:miter;stroke-width:0.8;"/>
   </g>
   <g id="patch_65">
    <path clip-path="url(#pfe0113ec92)" d="M 397.379919 263.31596 
L 401.985081 263.31596 
L 401.985081 263.31596 
L 397.379919 263.31596 
z
" style="fill:#3a923a;stroke:#ffffff;stroke-linejoin:miter;stroke-width:0.8;"/>
   </g>
   <g id="patch_66">
    <path clip-path="url(#pfe0113ec92)" d="M 403.136371 263.31596 
L 407.741533 263.31596 
L 407.741533 263.315563 
L 403.136371 263.315563 
z
" style="fill:#c03d3e;stroke:#ffffff;stroke-linejoin:miter;stroke-width:0.8;"/>
   </g>
   <g id="patch_67">
    <path clip-path="url(#pfe0113ec92)" d="M 408.892824 263.31596 
L 413.497986 263.31596 
L 413.497986 263.31596 
L 408.892824 263.31596 
z
" style="fill:#9372b2;stroke:#ffffff;stroke-linejoin:miter;stroke-width:0.8;"/>
   </g>
   <g id="patch_68">
    <path clip-path="url(#pfe0113ec92)" d="M 414.649276 263.31596 
L 419.254439 263.31596 
L 419.254439 263.31596 
L 414.649276 263.31596 
z
" style="fill:#845b53;stroke:#ffffff;stroke-linejoin:miter;stroke-width:0.8;"/>
   </g>
   <g id="line2d_7">
    <path clip-path="url(#pfe0113ec92)" style="fill:none;stroke:#424242;stroke-linecap:round;stroke-width:2.16;"/>
   </g>
   <g id="line2d_8">
    <path clip-path="url(#pfe0113ec92)" style="fill:none;stroke:#424242;stroke-linecap:round;stroke-width:2.16;"/>
   </g>
   <g id="line2d_9">
    <path clip-path="url(#pfe0113ec92)" style="fill:none;stroke:#424242;stroke-linecap:round;stroke-width:2.16;"/>
   </g>
   <g id="line2d_10">
    <path clip-path="url(#pfe0113ec92)" style="fill:none;stroke:#424242;stroke-linecap:round;stroke-width:2.16;"/>
   </g>
   <g id="line2d_11">
    <path clip-path="url(#pfe0113ec92)" style="fill:none;stroke:#424242;stroke-linecap:round;stroke-width:2.16;"/>
   </g>
   <g id="line2d_12">
    <path clip-path="url(#pfe0113ec92)" style="fill:none;stroke:#424242;stroke-linecap:round;stroke-width:2.16;"/>
   </g>
   <g id="line2d_13">
    <path clip-path="url(#pfe0113ec92)" style="fill:none;stroke:#424242;stroke-linecap:round;stroke-width:2.16;"/>
   </g>
   <g id="line2d_14">
    <path clip-path="url(#pfe0113ec92)" style="fill:none;stroke:#424242;stroke-linecap:round;stroke-width:2.16;"/>
   </g>
   <g id="line2d_15">
    <path clip-path="url(#pfe0113ec92)" style="fill:none;stroke:#424242;stroke-linecap:round;stroke-width:2.16;"/>
   </g>
   <g id="line2d_16">
    <path clip-path="url(#pfe0113ec92)" style="fill:none;stroke:#424242;stroke-linecap:round;stroke-width:2.16;"/>
   </g>
   <g id="line2d_17">
    <path clip-path="url(#pfe0113ec92)" style="fill:none;stroke:#424242;stroke-linecap:round;stroke-width:2.16;"/>
   </g>
   <g id="line2d_18">
    <path clip-path="url(#pfe0113ec92)" style="fill:none;stroke:#424242;stroke-linecap:round;stroke-width:2.16;"/>
   </g>
   <g id="line2d_19">
    <path clip-path="url(#pfe0113ec92)" style="fill:none;stroke:#424242;stroke-linecap:round;stroke-width:2.16;"/>
   </g>
   <g id="line2d_20">
    <path clip-path="url(#pfe0113ec92)" style="fill:none;stroke:#424242;stroke-linecap:round;stroke-width:2.16;"/>
   </g>
   <g id="line2d_21">
    <path clip-path="url(#pfe0113ec92)" style="fill:none;stroke:#424242;stroke-linecap:round;stroke-width:2.16;"/>
   </g>
   <g id="line2d_22">
    <path clip-path="url(#pfe0113ec92)" style="fill:none;stroke:#424242;stroke-linecap:round;stroke-width:2.16;"/>
   </g>
   <g id="line2d_23">
    <path clip-path="url(#pfe0113ec92)" style="fill:none;stroke:#424242;stroke-linecap:round;stroke-width:2.16;"/>
   </g>
   <g id="line2d_24">
    <path clip-path="url(#pfe0113ec92)" style="fill:none;stroke:#424242;stroke-linecap:round;stroke-width:2.16;"/>
   </g>
   <g id="line2d_25">
    <path clip-path="url(#pfe0113ec92)" style="fill:none;stroke:#424242;stroke-linecap:round;stroke-width:2.16;"/>
   </g>
   <g id="line2d_26">
    <path clip-path="url(#pfe0113ec92)" style="fill:none;stroke:#424242;stroke-linecap:round;stroke-width:2.16;"/>
   </g>
   <g id="line2d_27">
    <path clip-path="url(#pfe0113ec92)" style="fill:none;stroke:#424242;stroke-linecap:round;stroke-width:2.16;"/>
   </g>
   <g id="line2d_28">
    <path clip-path="url(#pfe0113ec92)" style="fill:none;stroke:#424242;stroke-linecap:round;stroke-width:2.16;"/>
   </g>
   <g id="line2d_29">
    <path clip-path="url(#pfe0113ec92)" style="fill:none;stroke:#424242;stroke-linecap:round;stroke-width:2.16;"/>
   </g>
   <g id="line2d_30">
    <path clip-path="url(#pfe0113ec92)" style="fill:none;stroke:#424242;stroke-linecap:round;stroke-width:2.16;"/>
   </g>
   <g id="line2d_31">
    <path clip-path="url(#pfe0113ec92)" style="fill:none;stroke:#424242;stroke-linecap:round;stroke-width:2.16;"/>
   </g>
   <g id="line2d_32">
    <path clip-path="url(#pfe0113ec92)" style="fill:none;stroke:#424242;stroke-linecap:round;stroke-width:2.16;"/>
   </g>
   <g id="line2d_33">
    <path clip-path="url(#pfe0113ec92)" style="fill:none;stroke:#424242;stroke-linecap:round;stroke-width:2.16;"/>
   </g>
   <g id="line2d_34">
    <path clip-path="url(#pfe0113ec92)" style="fill:none;stroke:#424242;stroke-linecap:round;stroke-width:2.16;"/>
   </g>
   <g id="line2d_35">
    <path clip-path="url(#pfe0113ec92)" style="fill:none;stroke:#424242;stroke-linecap:round;stroke-width:2.16;"/>
   </g>
   <g id="line2d_36">
    <path clip-path="url(#pfe0113ec92)" style="fill:none;stroke:#424242;stroke-linecap:round;stroke-width:2.16;"/>
   </g>
   <g id="line2d_37">
    <path clip-path="url(#pfe0113ec92)" style="fill:none;stroke:#424242;stroke-linecap:round;stroke-width:2.16;"/>
   </g>
   <g id="line2d_38">
    <path clip-path="url(#pfe0113ec92)" style="fill:none;stroke:#424242;stroke-linecap:round;stroke-width:2.16;"/>
   </g>
   <g id="line2d_39">
    <path clip-path="url(#pfe0113ec92)" style="fill:none;stroke:#424242;stroke-linecap:round;stroke-width:2.16;"/>
   </g>
   <g id="line2d_40">
    <path clip-path="url(#pfe0113ec92)" style="fill:none;stroke:#424242;stroke-linecap:round;stroke-width:2.16;"/>
   </g>
   <g id="line2d_41">
    <path clip-path="url(#pfe0113ec92)" style="fill:none;stroke:#424242;stroke-linecap:round;stroke-width:2.16;"/>
   </g>
   <g id="line2d_42">
    <path clip-path="url(#pfe0113ec92)" style="fill:none;stroke:#424242;stroke-linecap:round;stroke-width:2.16;"/>
   </g>
   <g id="line2d_43">
    <path clip-path="url(#pfe0113ec92)" style="fill:none;stroke:#424242;stroke-linecap:round;stroke-width:2.16;"/>
   </g>
   <g id="line2d_44">
    <path clip-path="url(#pfe0113ec92)" style="fill:none;stroke:#424242;stroke-linecap:round;stroke-width:2.16;"/>
   </g>
   <g id="line2d_45">
    <path clip-path="url(#pfe0113ec92)" style="fill:none;stroke:#424242;stroke-linecap:round;stroke-width:2.16;"/>
   </g>
   <g id="line2d_46">
    <path clip-path="url(#pfe0113ec92)" style="fill:none;stroke:#424242;stroke-linecap:round;stroke-width:2.16;"/>
   </g>
   <g id="line2d_47">
    <path clip-path="url(#pfe0113ec92)" style="fill:none;stroke:#424242;stroke-linecap:round;stroke-width:2.16;"/>
   </g>
   <g id="line2d_48">
    <path clip-path="url(#pfe0113ec92)" style="fill:none;stroke:#424242;stroke-linecap:round;stroke-width:2.16;"/>
   </g>
   <g id="line2d_49">
    <path clip-path="url(#pfe0113ec92)" style="fill:none;stroke:#424242;stroke-linecap:round;stroke-width:2.16;"/>
   </g>
   <g id="line2d_50">
    <path clip-path="url(#pfe0113ec92)" style="fill:none;stroke:#424242;stroke-linecap:round;stroke-width:2.16;"/>
   </g>
   <g id="line2d_51">
    <path clip-path="url(#pfe0113ec92)" style="fill:none;stroke:#424242;stroke-linecap:round;stroke-width:2.16;"/>
   </g>
   <g id="line2d_52">
    <path clip-path="url(#pfe0113ec92)" style="fill:none;stroke:#424242;stroke-linecap:round;stroke-width:2.16;"/>
   </g>
   <g id="line2d_53">
    <path clip-path="url(#pfe0113ec92)" style="fill:none;stroke:#424242;stroke-linecap:round;stroke-width:2.16;"/>
   </g>
   <g id="line2d_54">
    <path clip-path="url(#pfe0113ec92)" style="fill:none;stroke:#424242;stroke-linecap:round;stroke-width:2.16;"/>
   </g>
   <g id="line2d_55">
    <path clip-path="url(#pfe0113ec92)" style="fill:none;stroke:#424242;stroke-linecap:round;stroke-width:2.16;"/>
   </g>
   <g id="line2d_56">
    <path clip-path="url(#pfe0113ec92)" style="fill:none;stroke:#424242;stroke-linecap:round;stroke-width:2.16;"/>
   </g>
   <g id="line2d_57">
    <path clip-path="url(#pfe0113ec92)" style="fill:none;stroke:#424242;stroke-linecap:round;stroke-width:2.16;"/>
   </g>
   <g id="line2d_58">
    <path clip-path="url(#pfe0113ec92)" style="fill:none;stroke:#424242;stroke-linecap:round;stroke-width:2.16;"/>
   </g>
   <g id="line2d_59">
    <path clip-path="url(#pfe0113ec92)" style="fill:none;stroke:#424242;stroke-linecap:round;stroke-width:2.16;"/>
   </g>
   <g id="line2d_60">
    <path clip-path="url(#pfe0113ec92)" style="fill:none;stroke:#424242;stroke-linecap:round;stroke-width:2.16;"/>
   </g>
   <g id="line2d_61">
    <path clip-path="url(#pfe0113ec92)" style="fill:none;stroke:#424242;stroke-linecap:round;stroke-width:2.16;"/>
   </g>
   <g id="line2d_62">
    <path clip-path="url(#pfe0113ec92)" style="fill:none;stroke:#424242;stroke-linecap:round;stroke-width:2.16;"/>
   </g>
   <g id="line2d_63">
    <path clip-path="url(#pfe0113ec92)" style="fill:none;stroke:#424242;stroke-linecap:round;stroke-width:2.16;"/>
   </g>
   <g id="line2d_64">
    <path clip-path="url(#pfe0113ec92)" style="fill:none;stroke:#424242;stroke-linecap:round;stroke-width:2.16;"/>
   </g>
   <g id="line2d_65">
    <path clip-path="url(#pfe0113ec92)" style="fill:none;stroke:#424242;stroke-linecap:round;stroke-width:2.16;"/>
   </g>
   <g id="line2d_66">
    <path clip-path="url(#pfe0113ec92)" style="fill:none;stroke:#424242;stroke-linecap:round;stroke-width:2.16;"/>
   </g>
   <g id="line2d_67">
    <path clip-path="url(#pfe0113ec92)" style="fill:none;stroke:#424242;stroke-linecap:round;stroke-width:2.16;"/>
   </g>
   <g id="line2d_68">
    <path clip-path="url(#pfe0113ec92)" style="fill:none;stroke:#424242;stroke-linecap:round;stroke-width:2.16;"/>
   </g>
   <g id="line2d_69">
    <path clip-path="url(#pfe0113ec92)" style="fill:none;stroke:#424242;stroke-linecap:round;stroke-width:2.16;"/>
   </g>
   <g id="line2d_70">
    <path clip-path="url(#pfe0113ec92)" style="fill:none;stroke:#424242;stroke-linecap:round;stroke-width:2.16;"/>
   </g>
   <g id="line2d_71">
    <path clip-path="url(#pfe0113ec92)" style="fill:none;stroke:#424242;stroke-linecap:round;stroke-width:2.16;"/>
   </g>
   <g id="line2d_72">
    <path clip-path="url(#pfe0113ec92)" style="fill:none;stroke:#424242;stroke-linecap:round;stroke-width:2.16;"/>
   </g>
   <g id="line2d_73">
    <path clip-path="url(#pfe0113ec92)" d="M 39.904212 251.747246 
L 419.830084 251.747246 
" style="fill:none;stroke:#000000;stroke-dasharray:4.44,1.92;stroke-dashoffset:0;stroke-width:1.2;"/>
   </g>
   <g id="patch_69">
    <path d="M 39.904212 263.31596 
L 39.904212 20.373098 
" style="fill:none;stroke:#262626;stroke-linecap:square;stroke-linejoin:miter;"/>
   </g>
   <g id="patch_70">
    <path d="M 419.830084 263.31596 
L 419.830084 20.373098 
" style="fill:none;stroke:#262626;stroke-linecap:square;stroke-linejoin:miter;"/>
   </g>
   <g id="patch_71">
    <path d="M 39.904212 263.31596 
L 419.830084 263.31596 
" style="fill:none;stroke:#262626;stroke-linecap:square;stroke-linejoin:miter;"/>
   </g>
   <g id="patch_72">
    <path d="M 39.904212 20.373098 
L 419.830084 20.373098 
" style="fill:none;stroke:#262626;stroke-linecap:square;stroke-linejoin:miter;"/>
   </g>
   <g id="text_9">
    <!-- Wilcoxon test (Deep) -->
    <g style="fill:#262626;" transform="translate(183.895066 14.373098)scale(0.096 -0.096)">
     <defs>
      <path d="M 5523 3764 
C 5581 3936 5677 4160 6048 4160 
L 6048 4326 
C 5939 4326 5715 4326 5600 4326 
C 5440 4326 5158 4326 5005 4332 
L 5005 4160 
C 5293 4160 5414 4000 5414 3847 
C 5414 3802 5408 3777 5382 3707 
L 4390 555 
L 3347 3873 
C 3328 3937 3322 3963 3322 3988 
C 3322 4160 3603 4160 3725 4160 
L 3725 4326 
C 3539 4326 3219 4326 3021 4326 
C 2861 4326 2573 4326 2426 4332 
L 2426 4160 
C 2720 4160 2797 4141 2861 4027 
C 2886 3969 2989 3638 2989 3619 
C 2989 3593 2976 3555 2970 3536 
L 2029 561 
L 986 3867 
C 954 3957 954 3969 954 3982 
C 954 4160 1235 4160 1363 4160 
L 1363 4326 
C 1178 4326 858 4326 659 4326 
C 493 4326 211 4326 58 4332 
L 58 4160 
C 442 4160 467 4122 531 3918 
L 1779 -20 
C 1811 -115 1811 -128 1869 -128 
C 1920 -128 1939 -115 1965 -26 
L 3053 3433 
L 4141 -26 
C 4166 -115 4186 -128 4237 -128 
C 4294 -128 4294 -115 4326 -20 
L 5523 3764 
z
" id="CMR17-57" transform="scale(0.015625)"/>
      <path d="M 2758 1356 
C 2758 2176 2163 2816 1466 2816 
C 768 2816 173 2176 173 1356 
C 173 551 768 -64 1466 -64 
C 2163 -64 2758 551 2758 1356 
z
M 1466 51 
C 1165 51 909 230 762 480 
C 602 767 582 1126 582 1408 
C 582 1677 595 2010 762 2298 
C 890 2509 1139 2714 1466 2714 
C 1754 2714 1997 2554 2150 2330 
C 2349 2029 2349 1607 2349 1408 
C 2349 1158 2336 775 2163 467 
C 1984 173 1709 51 1466 51 
z
" id="CMR17-6f" transform="scale(0.015625)"/>
      <path d="M 1664 1477 
C 1856 1726 2074 2006 2253 2216 
C 2464 2458 2707 2560 2989 2560 
L 2989 2726 
C 2880 2726 2656 2726 2541 2726 
C 2368 2726 2170 2726 2022 2732 
L 2022 2566 
C 2112 2553 2163 2489 2163 2400 
C 2163 2285 2099 2215 2067 2171 
L 1594 1573 
L 1030 2306 
C 973 2376 973 2388 973 2420 
C 973 2497 1037 2560 1146 2560 
L 1146 2732 
C 992 2726 717 2726 557 2726 
C 384 2726 179 2726 38 2732 
L 38 2560 
C 384 2560 461 2534 614 2343 
L 1350 1395 
C 1363 1382 1395 1344 1395 1325 
C 1395 1299 838 619 768 530 
C 480 185 179 160 6 160 
L 6 0 
C 115 0 339 0 454 0 
C 582 0 864 0 979 -6 
L 979 160 
C 941 166 838 179 838 325 
C 838 440 890 510 947 586 
L 1478 1236 
L 2035 512 
C 2086 442 2163 346 2163 301 
C 2163 211 2086 160 1984 160 
L 1984 -6 
C 2138 0 2413 0 2573 0 
C 2746 0 2950 0 3091 -6 
L 3091 160 
C 2771 160 2675 172 2522 370 
L 1664 1477 
z
" id="CMR17-78" transform="scale(0.015625)"/>
      <path d="M 2656 1933 
C 2656 2259 2592 2790 1837 2790 
C 1331 2790 1069 2400 973 2144 
L 966 2144 
L 966 2790 
L 211 2720 
L 211 2554 
C 589 2554 646 2515 646 2208 
L 646 428 
C 646 184 621 153 211 153 
L 211 -13 
C 365 0 646 0 813 0 
C 979 0 1267 0 1421 -13 
L 1421 153 
C 1011 153 986 178 986 428 
L 986 1658 
C 986 2247 1344 2688 1792 2688 
C 2266 2688 2317 2266 2317 1958 
L 2317 428 
C 2317 184 2291 153 1882 153 
L 1882 -13 
C 2035 0 2317 0 2483 0 
C 2650 0 2938 0 3091 -13 
L 3091 153 
C 2682 153 2656 178 2656 428 
L 2656 1933 
z
" id="CMR17-6e" transform="scale(0.015625)"/>
      <path d="M 1958 -1561 
C 1958 -1555 1958 -1542 1939 -1523 
C 1645 -1224 858 -407 858 1581 
C 858 3569 1632 4379 1946 4697 
C 1946 4704 1958 4717 1958 4736 
C 1958 4755 1939 4768 1914 4768 
C 1843 4768 1299 4296 986 3594 
C 666 2887 576 2199 576 1588 
C 576 1128 621 351 1005 -471 
C 1312 -1135 1837 -1600 1914 -1600 
C 1946 -1600 1958 -1587 1958 -1561 
z
" id="CMR17-28" transform="scale(0.015625)"/>
      <path d="M 333 4352 
L 333 4186 
C 774 4186 845 4186 845 3900 
L 845 452 
C 845 166 774 166 333 166 
L 333 0 
L 2368 0 
C 3398 0 4224 943 4224 2141 
C 4224 3346 3411 4352 2368 4352 
L 333 4352 
z
M 1523 166 
C 1267 166 1254 197 1254 414 
L 1254 3938 
C 1254 4155 1267 4186 1523 4186 
L 2240 4186 
C 2771 4186 3750 3874 3750 2141 
C 3750 1242 3488 879 3366 707 
C 3213 510 2848 166 2240 166 
L 1523 166 
z
" id="CMR17-44" transform="scale(0.015625)"/>
      <path d="M 1408 -1063 
C 998 -1063 973 -1037 973 -789 
L 973 402 
C 1158 134 1427 -38 1766 -38 
C 2406 -38 3053 523 3053 1388 
C 3053 2191 2496 2802 1837 2802 
C 1453 2802 1139 2592 960 2338 
L 960 2802 
L 198 2732 
L 198 2567 
C 576 2567 634 2528 634 2223 
L 634 -789 
C 634 -1031 608 -1063 198 -1063 
L 198 -1228 
C 352 -1216 634 -1216 800 -1216 
C 966 -1216 1254 -1216 1408 -1228 
L 1408 -1063 
z
M 973 2012 
C 973 2102 973 2235 1222 2471 
C 1254 2497 1472 2688 1792 2688 
C 2259 2688 2643 2108 2643 1382 
C 2643 656 2234 64 1728 64 
C 1498 64 1248 172 1056 472 
C 973 612 973 650 973 752 
L 973 2012 
z
" id="CMR17-70" transform="scale(0.015625)"/>
      <path d="M 1683 1581 
C 1683 2040 1638 2817 1254 3639 
C 947 4303 422 4768 346 4768 
C 326 4768 301 4761 301 4729 
C 301 4717 307 4710 314 4697 
C 621 4378 1402 3568 1402 1584 
C 1402 -407 627 -1217 314 -1537 
C 307 -1549 301 -1556 301 -1568 
C 301 -1600 326 -1600 346 -1600 
C 416 -1600 960 -1128 1274 -426 
C 1594 281 1683 969 1683 1581 
z
" id="CMR17-29" transform="scale(0.015625)"/>
     </defs>
     <use transform="scale(0.996264)" xlink:href="#CMR17-57"/>
     <use transform="translate(95.09665 0)scale(0.996264)" xlink:href="#CMR17-69"/>
     <use transform="translate(119.967708 0)scale(0.996264)" xlink:href="#CMR17-6c"/>
     <use transform="translate(144.838767 0)scale(0.996264)" xlink:href="#CMR17-63"/>
     <use transform="translate(185.324427 0)scale(0.996264)" xlink:href="#CMR17-6f"/>
     <use transform="translate(228.412451 0)scale(0.996264)" xlink:href="#CMR17-78"/>
     <use transform="translate(276.705366 0)scale(0.996264)" xlink:href="#CMR17-6f"/>
     <use transform="translate(322.395843 0)scale(0.996264)" xlink:href="#CMR17-6e"/>
     <use transform="translate(403.36718 0)scale(0.996264)" xlink:href="#CMR17-74"/>
     <use transform="translate(438.647947 0)scale(0.996264)" xlink:href="#CMR17-65"/>
     <use transform="translate(479.133608 0)scale(0.996264)" xlink:href="#CMR17-73"/>
     <use transform="translate(514.934945 0)scale(0.996264)" xlink:href="#CMR17-74"/>
     <use transform="translate(580.29168 0)scale(0.996264)" xlink:href="#CMR17-28"/>
     <use transform="translate(615.572447 0)scale(0.996264)" xlink:href="#CMR17-44"/>
     <use transform="translate(685.966003 0)scale(0.996264)" xlink:href="#CMR17-65"/>
     <use transform="translate(726.451664 0)scale(0.996264)" xlink:href="#CMR17-65"/>
     <use transform="translate(766.937324 0)scale(0.996264)" xlink:href="#CMR17-70"/>
     <use transform="translate(817.832694 0)scale(0.996264)" xlink:href="#CMR17-29"/>
    </g>
   </g>
  </g>
 </g>
 <defs>
  <clipPath id="pfe0113ec92">
   <rect height="242.942862" width="379.925871" x="39.904212" y="20.373098"/>
  </clipPath>
 </defs>
</svg>
