<?xml version="1.0" encoding="utf-8" standalone="no"?>
<!DOCTYPE svg PUBLIC "-//W3C//DTD SVG 1.1//EN"
  "http://www.w3.org/Graphics/SVG/1.1/DTD/svg11.dtd">
<svg height="531.805135pt" version="1.1" viewBox="0 0 870.197283 531.805135" width="870.197283pt" xmlns="http://www.w3.org/2000/svg" xmlns:xlink="http://www.w3.org/1999/xlink">
 <metadata>
  <rdf:RDF xmlns:cc="http://creativecommons.org/ns#" xmlns:dc="http://purl.org/dc/elements/1.1/" xmlns:rdf="http://www.w3.org/1999/02/22-rdf-syntax-ns#">
   <cc:Work>
    <dc:type rdf:resource="http://purl.org/dc/dcmitype/StillImage"/>
    <dc:date>2021-11-18T16:06:10.508832</dc:date>
    <dc:format>image/svg+xml</dc:format>
    <dc:creator>
     <cc:Agent>
      <dc:title>Matplotlib v3.4.3, https://matplotlib.org/</dc:title>
     </cc:Agent>
    </dc:creator>
   </cc:Work>
  </rdf:RDF>
 </metadata>
 <defs>
  <style type="text/css">*{stroke-linecap:butt;stroke-linejoin:round;}</style>
 </defs>
 <g id="figure_1">
  <g id="patch_1">
   <path d="M 0 531.805135 
L 870.197283 531.805135 
L 870.197283 0 
L 0 0 
z
" style="fill:none;"/>
  </g>
  <g id="axes_1">
   <g id="patch_2">
    <path d="M 72.334997 358.659186 
L 844.991029 358.659186 
L 844.991029 7.2 
L 72.334997 7.2 
z
" style="fill:none;"/>
   </g>
   <g id="matplotlib.axis_1">
    <g id="xtick_1">
     <g id="text_1">
      <!-- random\_search -->
      <g style="fill:#262626;" transform="translate(67.112183 459.652528)rotate(-45)scale(0.198 -0.198)">
       <defs>
        <path d="M 960 1497 
C 960 2112 1222 2688 1702 2688 
C 1747 2688 1792 2682 1837 2662 
C 1837 2662 1696 2617 1696 2452 
C 1696 2298 1818 2234 1914 2234 
C 1990 2234 2131 2279 2131 2458 
C 2131 2663 1926 2790 1709 2790 
C 1222 2790 1011 2317 947 2093 
L 941 2093 
L 941 2790 
L 198 2720 
L 198 2554 
C 576 2554 634 2515 634 2208 
L 634 428 
C 634 184 608 153 198 153 
L 198 -13 
C 352 0 646 0 813 0 
C 998 0 1325 0 1498 -13 
L 1498 153 
C 1037 153 960 153 960 440 
L 960 1497 
z
" id="CMR17-72" transform="scale(0.015625)"/>
        <path d="M 2304 1653 
C 2304 2072 2304 2294 2035 2543 
C 1798 2752 1523 2816 1306 2816 
C 800 2816 435 2407 435 1971 
C 435 1728 627 1728 666 1728 
C 749 1728 896 1778 896 1954 
C 896 2112 774 2181 666 2181 
C 640 2181 608 2174 589 2168 
C 723 2592 1069 2714 1293 2714 
C 1613 2714 1965 2429 1965 1885 
L 1965 1600 
C 1587 1600 1133 1549 774 1357 
C 371 1133 256 813 256 570 
C 256 77 832 -64 1171 -64 
C 1523 -64 1850 139 1990 511 
C 2003 233 2182 -18 2464 -18 
C 2598 -18 2938 70 2938 567 
L 2938 920 
L 2822 920 
L 2822 562 
C 2822 178 2650 128 2566 128 
C 2304 128 2304 458 2304 738 
L 2304 1653 
z
M 1965 870 
C 1965 317 1568 38 1216 38 
C 896 38 646 275 646 570 
C 646 761 730 1100 1101 1305 
C 1408 1478 1760 1504 1965 1504 
L 1965 870 
z
" id="CMR17-61" transform="scale(0.015625)"/>
        <path d="M 2656 1933 
C 2656 2259 2592 2790 1837 2790 
C 1331 2790 1069 2400 973 2144 
L 966 2144 
L 966 2790 
L 211 2720 
L 211 2554 
C 589 2554 646 2515 646 2208 
L 646 428 
C 646 184 621 153 211 153 
L 211 -13 
C 365 0 646 0 813 0 
C 979 0 1267 0 1421 -13 
L 1421 153 
C 1011 153 986 178 986 428 
L 986 1658 
C 986 2247 1344 2688 1792 2688 
C 2266 2688 2317 2266 2317 1958 
L 2317 428 
C 2317 184 2291 153 1882 153 
L 1882 -13 
C 2035 0 2317 0 2483 0 
C 2650 0 2938 0 3091 -13 
L 3091 153 
C 2682 153 2656 178 2656 428 
L 2656 1933 
z
" id="CMR17-6e" transform="scale(0.015625)"/>
        <path d="M 1869 4326 
L 1869 4160 
C 2246 4160 2304 4122 2304 3820 
L 2304 2345 
C 2278 2377 2016 2790 1498 2790 
C 845 2790 211 2208 211 1364 
C 211 525 806 -64 1434 -64 
C 1978 -64 2259 337 2291 380 
L 2291 -63 
L 3066 -63 
L 3066 128 
C 2688 128 2630 166 2630 473 
L 2630 4396 
L 1869 4326 
z
M 2291 755 
C 2291 563 2176 390 2029 262 
C 1811 70 1594 38 1472 38 
C 1286 38 621 134 621 1356 
C 621 2612 1363 2688 1530 2688 
C 1824 2688 2061 2522 2208 2291 
C 2291 2157 2291 2138 2291 2023 
L 2291 755 
z
" id="CMR17-64" transform="scale(0.015625)"/>
        <path d="M 2758 1356 
C 2758 2176 2163 2816 1466 2816 
C 768 2816 173 2176 173 1356 
C 173 551 768 -64 1466 -64 
C 2163 -64 2758 551 2758 1356 
z
M 1466 51 
C 1165 51 909 230 762 480 
C 602 767 582 1126 582 1408 
C 582 1677 595 2010 762 2298 
C 890 2509 1139 2714 1466 2714 
C 1754 2714 1997 2554 2150 2330 
C 2349 2029 2349 1607 2349 1408 
C 2349 1158 2336 775 2163 467 
C 1984 173 1709 51 1466 51 
z
" id="CMR17-6f" transform="scale(0.015625)"/>
        <path d="M 4326 1933 
C 4326 2252 4269 2790 3507 2790 
C 3072 2790 2771 2496 2656 2151 
L 2650 2151 
C 2573 2676 2195 2790 1837 2790 
C 1331 2790 1069 2400 973 2144 
L 966 2144 
L 966 2790 
L 211 2720 
L 211 2554 
C 589 2554 646 2515 646 2208 
L 646 428 
C 646 184 621 153 211 153 
L 211 -13 
C 365 0 646 0 813 0 
C 979 0 1267 0 1421 -13 
L 1421 153 
C 1011 153 986 178 986 428 
L 986 1658 
C 986 2247 1344 2688 1792 2688 
C 2266 2688 2317 2266 2317 1958 
L 2317 428 
C 2317 184 2291 153 1882 153 
L 1882 -13 
C 2035 0 2317 0 2483 0 
C 2650 0 2938 0 3091 -13 
L 3091 153 
C 2682 153 2656 178 2656 428 
L 2656 1658 
C 2656 2247 3014 2688 3462 2688 
C 3936 2688 3987 2266 3987 1958 
L 3987 428 
C 3987 184 3962 153 3552 153 
L 3552 -13 
C 3706 0 3987 0 4154 0 
C 4320 0 4608 0 4762 -13 
L 4762 153 
C 4352 153 4326 178 4326 428 
L 4326 1933 
z
" id="CMR17-6d" transform="scale(0.015625)"/>
        <path d="M 1978 2697 
C 1978 2813 1971 2819 1933 2819 
C 1907 2819 1901 2813 1824 2717 
C 1805 2691 1747 2626 1728 2601 
C 1523 2819 1235 2819 1126 2819 
C 416 2819 160 2447 160 2076 
C 160 1498 813 1365 998 1325 
C 1402 1243 1542 1217 1677 1101 
C 1760 1025 1901 884 1901 654 
C 1901 384 1747 38 1158 38 
C 602 38 403 460 288 1021 
C 269 1110 269 1117 218 1117 
C 166 1117 160 1110 160 983 
L 160 63 
C 160 -51 166 -58 205 -58 
C 237 -58 243 -51 275 0 
C 314 57 410 211 448 276 
C 576 103 800 -64 1158 -64 
C 1792 -64 2131 283 2131 784 
C 2131 1112 1958 1285 1875 1362 
C 1683 1561 1459 1606 1190 1657 
C 838 1735 390 1825 390 2217 
C 390 2383 480 2737 1126 2737 
C 1811 2737 1850 2094 1862 1888 
C 1869 1856 1901 1849 1920 1849 
C 1978 1849 1978 1869 1978 1978 
L 1978 2697 
z
" id="CMR17-73" transform="scale(0.015625)"/>
        <path d="M 2438 1472 
C 2464 1498 2464 1511 2464 1576 
C 2464 2238 2118 2816 1389 2816 
C 710 2816 173 2169 173 1383 
C 173 551 781 -64 1459 -64 
C 2176 -64 2458 607 2458 740 
C 2458 784 2419 784 2406 784 
C 2362 784 2355 771 2330 696 
C 2189 265 1837 51 1504 51 
C 1229 51 954 203 781 480 
C 582 803 582 1176 582 1472 
L 2438 1472 
z
M 589 1568 
C 634 2505 1126 2714 1382 2714 
C 1818 2714 2112 2297 2118 1568 
L 589 1568 
z
" id="CMR17-65" transform="scale(0.015625)"/>
        <path d="M 2234 2240 
C 2112 2240 1933 2240 1933 2017 
C 1933 1838 2080 1787 2163 1787 
C 2208 1787 2394 1807 2394 2024 
C 2394 2467 1958 2803 1466 2803 
C 787 2803 211 2178 211 1363 
C 211 516 813 -64 1466 -64 
C 2259 -64 2458 677 2458 748 
C 2458 774 2451 793 2406 793 
C 2362 793 2355 787 2330 703 
C 2163 180 1798 51 1523 51 
C 1114 51 621 427 621 1369 
C 621 2338 1094 2688 1472 2688 
C 1722 2688 2093 2573 2234 2240 
z
" id="CMR17-63" transform="scale(0.015625)"/>
        <path d="M 2656 1933 
C 2656 2259 2592 2790 1837 2790 
C 1312 2790 1056 2368 979 2157 
L 973 2157 
L 973 4396 
L 211 4326 
L 211 4160 
C 589 4160 646 4122 646 3817 
L 646 426 
C 646 184 621 153 211 153 
L 211 -13 
C 365 0 646 0 813 0 
C 979 0 1267 0 1421 -13 
L 1421 153 
C 1011 153 986 178 986 428 
L 986 1658 
C 986 2247 1344 2688 1792 2688 
C 2266 2688 2317 2266 2317 1958 
L 2317 428 
C 2317 184 2291 153 1882 153 
L 1882 -13 
C 2035 0 2317 0 2483 0 
C 2650 0 2938 0 3091 -13 
L 3091 153 
C 2682 153 2656 178 2656 428 
L 2656 1933 
z
" id="CMR17-68" transform="scale(0.015625)"/>
       </defs>
       <use transform="scale(0.996264)" xlink:href="#CMR17-72"/>
       <use transform="translate(35.280768 0)scale(0.996264)" xlink:href="#CMR17-61"/>
       <use transform="translate(80.971245 0)scale(0.996264)" xlink:href="#CMR17-6e"/>
       <use transform="translate(131.866615 0)scale(0.996264)" xlink:href="#CMR17-64"/>
       <use transform="translate(182.761984 0)scale(0.996264)" xlink:href="#CMR17-6f"/>
       <use transform="translate(228.452462 0)scale(0.996264)" xlink:href="#CMR17-6d"/>
       <use transform="translate(338.269271 0)scale(0.996264)" xlink:href="#CMR17-73"/>
       <use transform="translate(374.070609 0)scale(0.996264)" xlink:href="#CMR17-65"/>
       <use transform="translate(414.556269 0)scale(0.996264)" xlink:href="#CMR17-61"/>
       <use transform="translate(460.246746 0)scale(0.996264)" xlink:href="#CMR17-72"/>
       <use transform="translate(495.527514 0)scale(0.996264)" xlink:href="#CMR17-63"/>
       <use transform="translate(533.410721 0)scale(0.996264)" xlink:href="#CMR17-68"/>
       <path d="M 310.854681 0 
L 338.269271 0 
L 338.269271 0.3985 
L 310.854681 0.3985 
L 310.854681 0 
z
"/>
      </g>
     </g>
    </g>
    <g id="xtick_2">
     <g id="text_2">
      <!-- central\_force\_dynamic -->
      <g style="fill:#262626;" transform="translate(111.945246 498.762409)rotate(-45)scale(0.198 -0.198)">
       <defs>
        <path d="M 966 2560 
L 1862 2560 
L 1862 2725 
L 966 2725 
L 966 3904 
L 851 3904 
C 838 3245 614 2668 70 2668 
L 70 2560 
L 627 2560 
L 627 771 
C 627 650 627 -64 1370 -64 
C 1747 -64 1965 306 1965 777 
L 1965 1140 
L 1850 1140 
L 1850 783 
C 1850 344 1677 51 1408 51 
C 1222 51 966 178 966 758 
L 966 2560 
z
" id="CMR17-74" transform="scale(0.015625)"/>
        <path d="M 979 4396 
L 218 4326 
L 218 4160 
C 595 4160 653 4122 653 3817 
L 653 426 
C 653 184 627 153 218 153 
L 218 -13 
C 371 0 653 0 813 0 
C 979 0 1261 0 1414 -13 
L 1414 153 
C 1005 153 979 178 979 426 
L 979 4396 
z
" id="CMR17-6c" transform="scale(0.015625)"/>
        <path d="M 979 2560 
L 1709 2560 
L 1709 2725 
L 966 2725 
L 966 3494 
C 966 4022 1235 4352 1510 4352 
C 1594 4352 1690 4327 1754 4282 
C 1702 4269 1568 4225 1568 4067 
C 1568 3901 1696 3850 1786 3850 
C 1875 3850 2003 3901 2003 4067 
C 2003 4308 1773 4454 1517 4454 
C 1152 4454 653 4156 653 3481 
L 653 2725 
L 141 2725 
L 141 2560 
L 653 2560 
L 653 427 
C 653 184 627 153 218 153 
L 218 -13 
C 371 0 666 0 832 0 
C 1018 0 1344 0 1517 -13 
L 1517 153 
C 1056 153 979 153 979 439 
L 979 2560 
z
" id="CMR17-66" transform="scale(0.015625)"/>
        <path d="M 2496 2197 
C 2656 2586 2944 2586 3034 2586 
L 3034 2752 
C 2912 2752 2752 2752 2630 2752 
C 2496 2752 2285 2752 2157 2758 
L 2157 2592 
C 2400 2573 2406 2394 2406 2343 
C 2406 2280 2394 2248 2362 2171 
L 1664 449 
L 902 2306 
C 870 2382 870 2426 870 2433 
C 870 2573 1018 2586 1171 2586 
L 1171 2758 
C 1018 2752 742 2752 582 2752 
C 410 2752 205 2752 64 2758 
L 64 2586 
C 410 2586 448 2554 531 2350 
L 1485 15 
C 1197 -738 1030 -1178 627 -1178 
C 557 -1178 397 -1159 282 -1044 
C 429 -1031 493 -942 493 -833 
C 493 -725 416 -629 288 -629 
C 147 -629 77 -725 77 -840 
C 77 -1095 339 -1280 627 -1280 
C 998 -1280 1229 -922 1357 -604 
L 2496 2197 
z
" id="CMR17-79" transform="scale(0.015625)"/>
        <path d="M 992 3909 
C 992 4049 877 4170 730 4170 
C 589 4170 467 4056 467 3909 
C 467 3769 582 3648 730 3648 
C 870 3648 992 3763 992 3909 
z
M 243 2706 
L 243 2541 
C 602 2541 653 2502 653 2197 
L 653 427 
C 653 184 627 153 218 153 
L 218 -13 
C 371 0 646 0 806 0 
C 960 0 1222 0 1370 -13 
L 1370 153 
C 992 153 979 191 979 420 
L 979 2776 
L 243 2706 
z
" id="CMR17-69" transform="scale(0.015625)"/>
       </defs>
       <use transform="scale(0.996264)" xlink:href="#CMR17-63"/>
       <use transform="translate(40.48566 0)scale(0.996264)" xlink:href="#CMR17-65"/>
       <use transform="translate(80.971321 0)scale(0.996264)" xlink:href="#CMR17-6e"/>
       <use transform="translate(129.264237 0)scale(0.996264)" xlink:href="#CMR17-74"/>
       <use transform="translate(164.545005 0)scale(0.996264)" xlink:href="#CMR17-72"/>
       <use transform="translate(199.825772 0)scale(0.996264)" xlink:href="#CMR17-61"/>
       <use transform="translate(245.516249 0)scale(0.996264)" xlink:href="#CMR17-6c"/>
       <use transform="translate(303.284528 0)scale(0.996264)" xlink:href="#CMR17-66"/>
       <use transform="translate(330.75804 0)scale(0.996264)" xlink:href="#CMR17-6f"/>
       <use transform="translate(376.448517 0)scale(0.996264)" xlink:href="#CMR17-72"/>
       <use transform="translate(411.729285 0)scale(0.996264)" xlink:href="#CMR17-63"/>
       <use transform="translate(452.214945 0)scale(0.996264)" xlink:href="#CMR17-65"/>
       <use transform="translate(525.597825 0)scale(0.996264)" xlink:href="#CMR17-64"/>
       <use transform="translate(576.493195 0)scale(0.996264)" xlink:href="#CMR17-79"/>
       <use transform="translate(624.786111 0)scale(0.996264)" xlink:href="#CMR17-6e"/>
       <use transform="translate(675.681481 0)scale(0.996264)" xlink:href="#CMR17-61"/>
       <use transform="translate(721.371958 0)scale(0.996264)" xlink:href="#CMR17-6d"/>
       <use transform="translate(798.291548 0)scale(0.996264)" xlink:href="#CMR17-69"/>
       <use transform="translate(823.162606 0)scale(0.996264)" xlink:href="#CMR17-63"/>
       <path d="M 275.869937 0 
L 303.284528 0 
L 303.284528 0.3985 
L 275.869937 0.3985 
L 275.869937 0 
z
"/>
       <path d="M 498.183235 0 
L 525.597825 0 
L 525.597825 0.3985 
L 498.183235 0.3985 
L 498.183235 0 
z
"/>
      </g>
     </g>
    </g>
    <g id="xtick_3">
     <g id="text_3">
      <!-- differential\_mutation -->
      <g style="fill:#262626;" transform="translate(179.445623 492.537661)rotate(-45)scale(0.198 -0.198)">
       <defs>
        <path d="M 2554 2560 
L 3283 2560 
L 3283 2725 
L 2541 2725 
L 2541 3494 
C 2541 4022 2810 4352 3085 4352 
C 3168 4352 3264 4327 3328 4282 
C 3277 4269 3142 4225 3142 4067 
C 3142 3901 3270 3850 3360 3850 
C 3450 3850 3578 3901 3578 4067 
C 3578 4308 3347 4454 3091 4454 
C 2842 4454 2637 4333 2477 4181 
C 2330 4390 2086 4454 1837 4454 
C 1338 4454 634 4168 634 3469 
L 634 2725 
L 122 2725 
L 122 2560 
L 634 2560 
L 634 427 
C 634 184 608 153 198 153 
L 198 -13 
C 352 0 634 0 794 0 
C 960 0 1242 0 1395 -13 
L 1395 153 
C 986 153 960 178 960 427 
L 960 2560 
L 2227 2560 
L 2227 427 
C 2227 184 2202 153 1792 153 
L 1792 -13 
C 1946 0 2240 0 2406 0 
C 2592 0 2918 0 3091 -13 
L 3091 153 
C 2630 153 2554 153 2554 439 
L 2554 2560 
z
M 947 2725 
L 947 3469 
C 947 4047 1395 4352 1824 4352 
C 1920 4352 2170 4332 2323 4187 
C 2208 4187 2099 4136 2099 3977 
C 2099 3812 2246 3767 2259 3767 
C 2227 3652 2227 3526 2227 3481 
L 2227 2725 
L 947 2725 
z
" id="CMR17-b" transform="scale(0.015625)"/>
        <path d="M 1882 2693 
L 1882 2528 
C 2259 2528 2317 2489 2317 2186 
L 2317 1032 
C 2317 500 2029 38 1555 38 
C 1030 38 986 348 986 678 
L 986 2763 
L 211 2693 
L 211 2528 
C 467 2528 640 2528 646 2274 
L 646 1058 
C 646 633 646 361 813 183 
C 896 101 1056 -64 1517 -64 
C 2061 -64 2272 377 2323 506 
L 2330 506 
L 2330 -63 
L 3091 -63 
L 3091 128 
C 2714 128 2656 166 2656 473 
L 2656 2763 
L 1882 2693 
z
" id="CMR17-75" transform="scale(0.015625)"/>
       </defs>
       <use transform="scale(0.996264)" xlink:href="#CMR17-64"/>
       <use transform="translate(50.89537 0)scale(0.996264)" xlink:href="#CMR17-69"/>
       <use transform="translate(75.766428 0)scale(0.996264)" xlink:href="#CMR17-b"/>
       <use transform="translate(128.111106 0)scale(0.996264)" xlink:href="#CMR17-65"/>
       <use transform="translate(168.596766 0)scale(0.996264)" xlink:href="#CMR17-72"/>
       <use transform="translate(203.877534 0)scale(0.996264)" xlink:href="#CMR17-65"/>
       <use transform="translate(244.363194 0)scale(0.996264)" xlink:href="#CMR17-6e"/>
       <use transform="translate(292.65611 0)scale(0.996264)" xlink:href="#CMR17-74"/>
       <use transform="translate(327.936878 0)scale(0.996264)" xlink:href="#CMR17-69"/>
       <use transform="translate(352.807936 0)scale(0.996264)" xlink:href="#CMR17-61"/>
       <use transform="translate(398.498414 0)scale(0.996264)" xlink:href="#CMR17-6c"/>
       <use transform="translate(456.266692 0)scale(0.996264)" xlink:href="#CMR17-6d"/>
       <use transform="translate(530.583827 0)scale(0.996264)" xlink:href="#CMR17-75"/>
       <use transform="translate(581.479197 0)scale(0.996264)" xlink:href="#CMR17-74"/>
       <use transform="translate(616.759965 0)scale(0.996264)" xlink:href="#CMR17-61"/>
       <use transform="translate(662.450442 0)scale(0.996264)" xlink:href="#CMR17-74"/>
       <use transform="translate(697.73121 0)scale(0.996264)" xlink:href="#CMR17-69"/>
       <use transform="translate(722.602268 0)scale(0.996264)" xlink:href="#CMR17-6f"/>
       <use transform="translate(768.292746 0)scale(0.996264)" xlink:href="#CMR17-6e"/>
       <path d="M 428.852101 0 
L 456.266692 0 
L 456.266692 0.3985 
L 428.852101 0.3985 
L 428.852101 0 
z
"/>
      </g>
     </g>
    </g>
    <g id="xtick_4">
     <g id="text_4">
      <!-- firefly\_dynamic -->
      <g style="fill:#262626;" transform="translate(259.563159 461.078593)rotate(-45)scale(0.198 -0.198)">
       <defs>
        <path d="M 2554 2764 
C 2400 2764 1926 2764 1805 2739 
C 1766 2725 1754 2725 1677 2725 
L 947 2725 
L 947 3469 
C 947 4073 1434 4352 1818 4352 
C 1939 4352 2214 4320 2355 4101 
C 2291 4101 2086 4101 2086 3878 
C 2086 3725 2189 3648 2317 3648 
C 2432 3648 2547 3712 2547 3885 
C 2547 4205 2240 4454 1843 4454 
C 1338 4454 634 4168 634 3469 
L 634 2725 
L 122 2725 
L 122 2560 
L 634 2560 
L 634 427 
C 634 184 608 153 198 153 
L 198 -13 
C 352 0 634 0 794 0 
C 960 0 1242 0 1395 -13 
L 1395 153 
C 986 153 960 178 960 427 
L 960 2560 
L 1901 2560 
C 2176 2560 2227 2502 2227 2222 
L 2227 427 
C 2227 184 2202 153 1792 153 
L 1792 -13 
C 1946 0 2227 0 2387 0 
C 2554 0 2835 0 2989 -13 
L 2989 153 
C 2579 153 2554 178 2554 427 
L 2554 2764 
z
" id="CMR17-c" transform="scale(0.015625)"/>
        <path d="M 2554 4409 
C 2483 4396 2426 4384 2342 4365 
C 2157 4460 1914 4460 1850 4460 
C 1306 4460 634 4154 634 3472 
L 634 2725 
L 122 2725 
L 122 2560 
L 634 2560 
L 634 427 
C 634 184 608 153 198 153 
L 198 -13 
C 352 0 634 0 794 0 
C 960 0 1242 0 1395 -13 
L 1395 153 
C 986 153 960 178 960 427 
L 960 2560 
L 2227 2560 
L 2227 427 
C 2227 184 2202 153 1792 153 
L 1792 -13 
C 1946 0 2227 0 2387 0 
C 2554 0 2835 0 2989 -13 
L 2989 153 
C 2579 153 2554 178 2554 427 
L 2554 4409 
z
M 947 2725 
L 947 3469 
C 947 4028 1370 4352 1837 4352 
C 1869 4352 2221 4352 2221 4282 
C 2221 4275 2214 4269 2182 4237 
C 2125 4199 2099 4135 2099 4071 
C 2099 3981 2144 3905 2227 3873 
L 2227 2725 
L 947 2725 
z
" id="CMR17-d" transform="scale(0.015625)"/>
       </defs>
       <use transform="scale(0.996264)" xlink:href="#CMR17-c"/>
       <use transform="translate(49.742223 0)scale(0.996264)" xlink:href="#CMR17-72"/>
       <use transform="translate(85.022991 0)scale(0.996264)" xlink:href="#CMR17-65"/>
       <use transform="translate(125.508652 0)scale(0.996264)" xlink:href="#CMR17-d"/>
       <use transform="translate(175.250875 0)scale(0.996264)" xlink:href="#CMR17-79"/>
       <use transform="translate(256.44101 0)scale(0.996264)" xlink:href="#CMR17-64"/>
       <use transform="translate(307.33638 0)scale(0.996264)" xlink:href="#CMR17-79"/>
       <use transform="translate(355.629296 0)scale(0.996264)" xlink:href="#CMR17-6e"/>
       <use transform="translate(406.524666 0)scale(0.996264)" xlink:href="#CMR17-61"/>
       <use transform="translate(452.215143 0)scale(0.996264)" xlink:href="#CMR17-6d"/>
       <use transform="translate(529.134733 0)scale(0.996264)" xlink:href="#CMR17-69"/>
       <use transform="translate(554.005791 0)scale(0.996264)" xlink:href="#CMR17-63"/>
       <path d="M 229.02642 0 
L 256.44101 0 
L 256.44101 0.3985 
L 229.02642 0.3985 
L 229.02642 0 
z
"/>
      </g>
     </g>
    </g>
    <g id="xtick_5">
     <g id="text_5">
      <!-- genetic\_crossover -->
      <g style="fill:#262626;" transform="translate(318.756581 471.467754)rotate(-45)scale(0.198 -0.198)">
       <defs>
        <path d="M 710 1164 
C 832 1068 1043 960 1299 960 
C 1805 960 2240 1357 2240 1888 
C 2240 2054 2189 2310 1997 2509 
C 2176 2692 2438 2752 2586 2752 
C 2611 2752 2650 2752 2682 2734 
C 2656 2728 2598 2703 2598 2605 
C 2598 2527 2656 2471 2739 2471 
C 2835 2471 2886 2533 2886 2614 
C 2886 2731 2790 2854 2586 2854 
C 2330 2854 2106 2738 1926 2580 
C 1734 2753 1504 2816 1299 2816 
C 794 2816 358 2419 358 1888 
C 358 1522 570 1292 634 1228 
C 442 1004 442 743 442 711 
C 442 545 506 302 723 168 
C 390 85 128 -169 128 -486 
C 128 -943 736 -1280 1466 -1280 
C 2170 -1280 2803 -956 2803 -479 
C 2803 384 1856 384 1363 384 
C 1216 384 954 384 922 391 
C 723 423 589 602 589 826 
C 589 883 589 1024 710 1164 
z
M 1299 1068 
C 736 1068 736 1760 736 1889 
C 736 2016 736 2708 1299 2708 
C 1862 2708 1862 2016 1862 1889 
C 1862 1760 1862 1068 1299 1068 
z
M 1466 -1171 
C 826 -1171 384 -835 384 -486 
C 384 -289 493 -105 634 -4 
C 794 104 858 104 1293 104 
C 1818 104 2547 104 2547 -486 
C 2547 -835 2106 -1171 1466 -1171 
z
" id="CMR17-67" transform="scale(0.015625)"/>
        <path d="M 2502 2163 
C 2560 2304 2662 2560 3034 2560 
L 3034 2726 
C 2912 2726 2752 2726 2630 2726 
C 2496 2726 2285 2726 2157 2732 
L 2157 2566 
C 2317 2553 2406 2477 2406 2311 
C 2406 2253 2406 2240 2368 2151 
L 1664 377 
L 902 2286 
C 864 2369 864 2381 864 2407 
C 864 2560 1075 2560 1171 2560 
L 1171 2732 
C 1018 2726 736 2726 576 2726 
C 403 2726 205 2726 64 2732 
L 64 2560 
C 307 2560 442 2560 518 2362 
L 1446 44 
C 1485 -51 1491 -64 1549 -64 
C 1606 -64 1613 -51 1651 44 
L 2502 2163 
z
" id="CMR17-76" transform="scale(0.015625)"/>
       </defs>
       <use transform="scale(0.996264)" xlink:href="#CMR17-67"/>
       <use transform="translate(45.690477 0)scale(0.996264)" xlink:href="#CMR17-65"/>
       <use transform="translate(86.176138 0)scale(0.996264)" xlink:href="#CMR17-6e"/>
       <use transform="translate(137.071507 0)scale(0.996264)" xlink:href="#CMR17-65"/>
       <use transform="translate(177.557168 0)scale(0.996264)" xlink:href="#CMR17-74"/>
       <use transform="translate(212.837936 0)scale(0.996264)" xlink:href="#CMR17-69"/>
       <use transform="translate(237.708994 0)scale(0.996264)" xlink:href="#CMR17-63"/>
       <use transform="translate(311.091874 0)scale(0.996264)" xlink:href="#CMR17-63"/>
       <use transform="translate(351.577535 0)scale(0.996264)" xlink:href="#CMR17-72"/>
       <use transform="translate(386.858302 0)scale(0.996264)" xlink:href="#CMR17-6f"/>
       <use transform="translate(432.548779 0)scale(0.996264)" xlink:href="#CMR17-73"/>
       <use transform="translate(468.350117 0)scale(0.996264)" xlink:href="#CMR17-73"/>
       <use transform="translate(504.151455 0)scale(0.996264)" xlink:href="#CMR17-6f"/>
       <use transform="translate(547.239478 0)scale(0.996264)" xlink:href="#CMR17-76"/>
       <use transform="translate(592.92994 0)scale(0.996264)" xlink:href="#CMR17-65"/>
       <use transform="translate(633.4156 0)scale(0.996264)" xlink:href="#CMR17-72"/>
       <path d="M 283.677284 0 
L 311.091874 0 
L 311.091874 0.3985 
L 283.677284 0.3985 
L 283.677284 0 
z
"/>
      </g>
     </g>
    </g>
    <g id="xtick_6">
     <g id="text_6">
      <!-- genetic\_mutation -->
      <g style="fill:#262626;" transform="translate(382.772374 472.212174)rotate(-45)scale(0.198 -0.198)">
       <use transform="scale(0.996264)" xlink:href="#CMR17-67"/>
       <use transform="translate(45.690477 0)scale(0.996264)" xlink:href="#CMR17-65"/>
       <use transform="translate(86.176138 0)scale(0.996264)" xlink:href="#CMR17-6e"/>
       <use transform="translate(137.071507 0)scale(0.996264)" xlink:href="#CMR17-65"/>
       <use transform="translate(177.557168 0)scale(0.996264)" xlink:href="#CMR17-74"/>
       <use transform="translate(212.837936 0)scale(0.996264)" xlink:href="#CMR17-69"/>
       <use transform="translate(237.708994 0)scale(0.996264)" xlink:href="#CMR17-63"/>
       <use transform="translate(311.091874 0)scale(0.996264)" xlink:href="#CMR17-6d"/>
       <use transform="translate(385.40901 0)scale(0.996264)" xlink:href="#CMR17-75"/>
       <use transform="translate(436.30438 0)scale(0.996264)" xlink:href="#CMR17-74"/>
       <use transform="translate(471.585148 0)scale(0.996264)" xlink:href="#CMR17-61"/>
       <use transform="translate(517.275625 0)scale(0.996264)" xlink:href="#CMR17-74"/>
       <use transform="translate(552.556393 0)scale(0.996264)" xlink:href="#CMR17-69"/>
       <use transform="translate(577.427451 0)scale(0.996264)" xlink:href="#CMR17-6f"/>
       <use transform="translate(623.117928 0)scale(0.996264)" xlink:href="#CMR17-6e"/>
       <path d="M 283.677284 0 
L 311.091874 0 
L 311.091874 0.3985 
L 283.677284 0.3985 
L 283.677284 0 
z
"/>
      </g>
     </g>
    </g>
    <g id="xtick_7">
     <g id="text_7">
      <!-- gravitational\_search -->
      <g style="fill:#262626;" transform="translate(439.430991 487.670944)rotate(-45)scale(0.198 -0.198)">
       <use transform="scale(0.996264)" xlink:href="#CMR17-67"/>
       <use transform="translate(45.690477 0)scale(0.996264)" xlink:href="#CMR17-72"/>
       <use transform="translate(80.971245 0)scale(0.996264)" xlink:href="#CMR17-61"/>
       <use transform="translate(124.059268 0)scale(0.996264)" xlink:href="#CMR17-76"/>
       <use transform="translate(172.352184 0)scale(0.996264)" xlink:href="#CMR17-69"/>
       <use transform="translate(197.223242 0)scale(0.996264)" xlink:href="#CMR17-74"/>
       <use transform="translate(232.50401 0)scale(0.996264)" xlink:href="#CMR17-61"/>
       <use transform="translate(278.194487 0)scale(0.996264)" xlink:href="#CMR17-74"/>
       <use transform="translate(313.475255 0)scale(0.996264)" xlink:href="#CMR17-69"/>
       <use transform="translate(338.346314 0)scale(0.996264)" xlink:href="#CMR17-6f"/>
       <use transform="translate(384.036791 0)scale(0.996264)" xlink:href="#CMR17-6e"/>
       <use transform="translate(434.932161 0)scale(0.996264)" xlink:href="#CMR17-61"/>
       <use transform="translate(480.622638 0)scale(0.996264)" xlink:href="#CMR17-6c"/>
       <use transform="translate(538.390916 0)scale(0.996264)" xlink:href="#CMR17-73"/>
       <use transform="translate(574.192253 0)scale(0.996264)" xlink:href="#CMR17-65"/>
       <use transform="translate(614.677914 0)scale(0.996264)" xlink:href="#CMR17-61"/>
       <use transform="translate(660.368391 0)scale(0.996264)" xlink:href="#CMR17-72"/>
       <use transform="translate(695.649159 0)scale(0.996264)" xlink:href="#CMR17-63"/>
       <use transform="translate(733.532365 0)scale(0.996264)" xlink:href="#CMR17-68"/>
       <path d="M 510.976325 0 
L 538.390916 0 
L 538.390916 0.3985 
L 510.976325 0.3985 
L 510.976325 0 
z
"/>
      </g>
     </g>
    </g>
    <g id="xtick_8">
     <g id="text_8">
      <!-- random\_flight -->
      <g style="fill:#262626;" transform="translate(520.779504 453.749925)rotate(-45)scale(0.198 -0.198)">
       <use transform="scale(0.996264)" xlink:href="#CMR17-72"/>
       <use transform="translate(35.280768 0)scale(0.996264)" xlink:href="#CMR17-61"/>
       <use transform="translate(80.971245 0)scale(0.996264)" xlink:href="#CMR17-6e"/>
       <use transform="translate(131.866615 0)scale(0.996264)" xlink:href="#CMR17-64"/>
       <use transform="translate(182.761984 0)scale(0.996264)" xlink:href="#CMR17-6f"/>
       <use transform="translate(228.452462 0)scale(0.996264)" xlink:href="#CMR17-6d"/>
       <use transform="translate(338.269271 0)scale(0.996264)" xlink:href="#CMR17-d"/>
       <use transform="translate(388.011494 0)scale(0.996264)" xlink:href="#CMR17-69"/>
       <use transform="translate(412.882553 0)scale(0.996264)" xlink:href="#CMR17-67"/>
       <use transform="translate(458.57303 0)scale(0.996264)" xlink:href="#CMR17-68"/>
       <use transform="translate(506.865946 0)scale(0.996264)" xlink:href="#CMR17-74"/>
       <path d="M 310.854681 0 
L 338.269271 0 
L 338.269271 0.3985 
L 310.854681 0.3985 
L 310.854681 0 
z
"/>
      </g>
     </g>
    </g>
    <g id="xtick_9">
     <g id="text_9">
      <!-- local\_random\_walk -->
      <g style="fill:#262626;" transform="translate(571.44732 481.190298)rotate(-45)scale(0.198 -0.198)">
       <defs>
        <path d="M 3725 2183 
C 3853 2560 4109 2560 4205 2560 
L 4205 2732 
C 4077 2732 3949 2732 3821 2732 
C 3699 2732 3424 2732 3315 2738 
L 3315 2560 
C 3514 2560 3622 2445 3622 2286 
C 3622 2241 3610 2184 3597 2140 
L 2995 407 
L 2342 2275 
C 2330 2319 2310 2370 2310 2395 
C 2310 2560 2528 2560 2630 2560 
L 2630 2738 
C 2483 2732 2214 2732 2061 2732 
C 1901 2732 1734 2732 1587 2738 
L 1587 2560 
C 1939 2560 1939 2547 2074 2149 
L 1485 451 
L 851 2281 
C 819 2363 819 2376 819 2395 
C 819 2560 1037 2560 1139 2560 
L 1139 2738 
C 986 2732 717 2732 557 2732 
C 416 2732 198 2732 64 2738 
L 64 2560 
C 346 2560 416 2541 486 2331 
L 1274 49 
C 1299 -33 1318 -52 1370 -52 
C 1414 -52 1440 -39 1472 56 
L 2131 1980 
L 2797 56 
C 2829 -39 2854 -52 2899 -52 
C 2950 -52 2970 -33 2995 50 
L 3725 2183 
z
" id="CMR17-77" transform="scale(0.015625)"/>
        <path d="M 1670 1673 
C 1664 1686 1632 1724 1632 1743 
C 1632 1756 2086 2171 2144 2222 
C 2509 2528 2739 2560 2906 2560 
L 2906 2733 
C 2867 2733 2854 2733 2848 2720 
L 2534 2720 
C 2355 2720 2080 2720 1907 2733 
L 1907 2566 
C 1997 2559 2061 2508 2061 2419 
C 2061 2291 1933 2170 1926 2170 
L 960 1289 
L 960 4396 
L 198 4326 
L 198 4160 
C 576 4160 634 4122 634 3817 
L 634 426 
C 634 184 608 153 198 153 
L 198 -13 
C 352 0 634 0 794 0 
C 954 0 1235 0 1389 -13 
L 1389 153 
C 979 153 954 178 954 428 
L 954 1130 
L 1395 1532 
L 2042 574 
C 2118 459 2182 369 2182 286 
C 2182 172 2067 153 1990 153 
L 1990 -13 
C 2144 0 2419 0 2579 0 
C 2694 0 2931 0 3040 0 
L 3040 153 
C 2739 153 2669 210 2477 491 
L 1670 1673 
z
" id="CMR17-6b" transform="scale(0.015625)"/>
       </defs>
       <use transform="scale(0.996264)" xlink:href="#CMR17-6c"/>
       <use transform="translate(24.871058 0)scale(0.996264)" xlink:href="#CMR17-6f"/>
       <use transform="translate(73.163974 0)scale(0.996264)" xlink:href="#CMR17-63"/>
       <use transform="translate(113.649635 0)scale(0.996264)" xlink:href="#CMR17-61"/>
       <use transform="translate(159.340112 0)scale(0.996264)" xlink:href="#CMR17-6c"/>
       <use transform="translate(217.10839 0)scale(0.996264)" xlink:href="#CMR17-72"/>
       <use transform="translate(252.389158 0)scale(0.996264)" xlink:href="#CMR17-61"/>
       <use transform="translate(298.079635 0)scale(0.996264)" xlink:href="#CMR17-6e"/>
       <use transform="translate(348.975005 0)scale(0.996264)" xlink:href="#CMR17-64"/>
       <use transform="translate(399.870374 0)scale(0.996264)" xlink:href="#CMR17-6f"/>
       <use transform="translate(445.560852 0)scale(0.996264)" xlink:href="#CMR17-6d"/>
       <use transform="translate(555.377661 0)scale(0.996264)" xlink:href="#CMR17-77"/>
       <use transform="translate(619.285088 0)scale(0.996264)" xlink:href="#CMR17-61"/>
       <use transform="translate(664.975565 0)scale(0.996264)" xlink:href="#CMR17-6c"/>
       <use transform="translate(689.846623 0)scale(0.996264)" xlink:href="#CMR17-6b"/>
       <path d="M 189.6938 0 
L 217.10839 0 
L 217.10839 0.3985 
L 189.6938 0.3985 
L 189.6938 0 
z
"/>
       <path d="M 527.963071 0 
L 555.377661 0 
L 555.377661 0.3985 
L 527.963071 0.3985 
L 527.963071 0 
z
"/>
      </g>
     </g>
    </g>
    <g id="xtick_10">
     <g id="text_10">
      <!-- random\_sample -->
      <g style="fill:#262626;" transform="translate(644.600234 463.660474)rotate(-45)scale(0.198 -0.198)">
       <defs>
        <path d="M 1408 -1063 
C 998 -1063 973 -1037 973 -789 
L 973 402 
C 1158 134 1427 -38 1766 -38 
C 2406 -38 3053 523 3053 1388 
C 3053 2191 2496 2802 1837 2802 
C 1453 2802 1139 2592 960 2338 
L 960 2802 
L 198 2732 
L 198 2567 
C 576 2567 634 2528 634 2223 
L 634 -789 
C 634 -1031 608 -1063 198 -1063 
L 198 -1228 
C 352 -1216 634 -1216 800 -1216 
C 966 -1216 1254 -1216 1408 -1228 
L 1408 -1063 
z
M 973 2012 
C 973 2102 973 2235 1222 2471 
C 1254 2497 1472 2688 1792 2688 
C 2259 2688 2643 2108 2643 1382 
C 2643 656 2234 64 1728 64 
C 1498 64 1248 172 1056 472 
C 973 612 973 650 973 752 
L 973 2012 
z
" id="CMR17-70" transform="scale(0.015625)"/>
       </defs>
       <use transform="scale(0.996264)" xlink:href="#CMR17-72"/>
       <use transform="translate(35.280768 0)scale(0.996264)" xlink:href="#CMR17-61"/>
       <use transform="translate(80.971245 0)scale(0.996264)" xlink:href="#CMR17-6e"/>
       <use transform="translate(131.866615 0)scale(0.996264)" xlink:href="#CMR17-64"/>
       <use transform="translate(182.761984 0)scale(0.996264)" xlink:href="#CMR17-6f"/>
       <use transform="translate(228.452462 0)scale(0.996264)" xlink:href="#CMR17-6d"/>
       <use transform="translate(338.269271 0)scale(0.996264)" xlink:href="#CMR17-73"/>
       <use transform="translate(374.070609 0)scale(0.996264)" xlink:href="#CMR17-61"/>
       <use transform="translate(419.761086 0)scale(0.996264)" xlink:href="#CMR17-6d"/>
       <use transform="translate(496.680676 0)scale(0.996264)" xlink:href="#CMR17-70"/>
       <use transform="translate(547.576045 0)scale(0.996264)" xlink:href="#CMR17-6c"/>
       <use transform="translate(572.447104 0)scale(0.996264)" xlink:href="#CMR17-65"/>
       <path d="M 310.854681 0 
L 338.269271 0 
L 338.269271 0.3985 
L 310.854681 0.3985 
L 310.854681 0 
z
"/>
      </g>
     </g>
    </g>
    <g id="xtick_11">
     <g id="text_11">
      <!-- spiral\_dynamic -->
      <g style="fill:#262626;" transform="translate(710.708574 460.2198)rotate(-45)scale(0.198 -0.198)">
       <use transform="scale(0.996264)" xlink:href="#CMR17-73"/>
       <use transform="translate(35.801338 0)scale(0.996264)" xlink:href="#CMR17-70"/>
       <use transform="translate(86.696707 0)scale(0.996264)" xlink:href="#CMR17-69"/>
       <use transform="translate(111.567766 0)scale(0.996264)" xlink:href="#CMR17-72"/>
       <use transform="translate(146.848534 0)scale(0.996264)" xlink:href="#CMR17-61"/>
       <use transform="translate(192.539011 0)scale(0.996264)" xlink:href="#CMR17-6c"/>
       <use transform="translate(250.307289 0)scale(0.996264)" xlink:href="#CMR17-64"/>
       <use transform="translate(301.202659 0)scale(0.996264)" xlink:href="#CMR17-79"/>
       <use transform="translate(349.495574 0)scale(0.996264)" xlink:href="#CMR17-6e"/>
       <use transform="translate(400.390944 0)scale(0.996264)" xlink:href="#CMR17-61"/>
       <use transform="translate(446.081421 0)scale(0.996264)" xlink:href="#CMR17-6d"/>
       <use transform="translate(523.001011 0)scale(0.996264)" xlink:href="#CMR17-69"/>
       <use transform="translate(547.87207 0)scale(0.996264)" xlink:href="#CMR17-63"/>
       <path d="M 222.892699 0 
L 250.307289 0 
L 250.307289 0.3985 
L 222.892699 0.3985 
L 222.892699 0 
z
"/>
      </g>
     </g>
    </g>
    <g id="xtick_12">
     <g id="text_12">
      <!-- swarm\_dynamic -->
      <g style="fill:#262626;" transform="translate(772.283166 465.84662)rotate(-45)scale(0.198 -0.198)">
       <use transform="scale(0.996264)" xlink:href="#CMR17-73"/>
       <use transform="translate(35.801338 0)scale(0.996264)" xlink:href="#CMR17-77"/>
       <use transform="translate(99.708764 0)scale(0.996264)" xlink:href="#CMR17-61"/>
       <use transform="translate(145.399241 0)scale(0.996264)" xlink:href="#CMR17-72"/>
       <use transform="translate(180.680009 0)scale(0.996264)" xlink:href="#CMR17-6d"/>
       <use transform="translate(290.496819 0)scale(0.996264)" xlink:href="#CMR17-64"/>
       <use transform="translate(341.392188 0)scale(0.996264)" xlink:href="#CMR17-79"/>
       <use transform="translate(389.685104 0)scale(0.996264)" xlink:href="#CMR17-6e"/>
       <use transform="translate(440.580474 0)scale(0.996264)" xlink:href="#CMR17-61"/>
       <use transform="translate(486.270951 0)scale(0.996264)" xlink:href="#CMR17-6d"/>
       <use transform="translate(563.190541 0)scale(0.996264)" xlink:href="#CMR17-69"/>
       <use transform="translate(588.061599 0)scale(0.996264)" xlink:href="#CMR17-63"/>
       <path d="M 263.082228 0 
L 290.496819 0 
L 290.496819 0.3985 
L 263.082228 0.3985 
L 263.082228 0 
z
"/>
      </g>
     </g>
    </g>
    <g id="text_13">
     <!-- Basic metaheuristic search operators -->
     <g style="fill:#262626;" transform="translate(301.172738 520.419446)scale(0.216 -0.216)">
      <defs>
       <path d="M 333 4352 
L 333 4186 
C 774 4186 845 4186 845 3900 
L 845 452 
C 845 166 774 166 333 166 
L 333 0 
L 2534 0 
C 3354 0 3885 583 3885 1164 
C 3885 1741 3360 2233 2675 2233 
C 3290 2356 3718 2771 3718 3264 
C 3718 3802 3194 4352 2368 4352 
L 333 4352 
z
M 1248 2304 
L 1248 3937 
C 1248 4155 1261 4186 1517 4186 
L 2336 4186 
C 2970 4186 3251 3674 3251 3277 
C 3251 2791 2861 2304 2170 2304 
L 1248 2304 
z
M 1517 166 
C 1261 166 1248 197 1248 413 
L 1248 2202 
L 2432 2202 
C 3091 2202 3411 1625 3411 1162 
C 3411 699 3046 166 2349 166 
L 1517 166 
z
" id="CMR17-42" transform="scale(0.015625)"/>
      </defs>
      <use transform="scale(0.996264)" xlink:href="#CMR17-42"/>
      <use transform="translate(65.188754 0)scale(0.996264)" xlink:href="#CMR17-61"/>
      <use transform="translate(110.879232 0)scale(0.996264)" xlink:href="#CMR17-73"/>
      <use transform="translate(146.680569 0)scale(0.996264)" xlink:href="#CMR17-69"/>
      <use transform="translate(171.551628 0)scale(0.996264)" xlink:href="#CMR17-63"/>
      <use transform="translate(242.113254 0)scale(0.996264)" xlink:href="#CMR17-6d"/>
      <use transform="translate(319.032844 0)scale(0.996264)" xlink:href="#CMR17-65"/>
      <use transform="translate(359.518505 0)scale(0.996264)" xlink:href="#CMR17-74"/>
      <use transform="translate(394.799273 0)scale(0.996264)" xlink:href="#CMR17-61"/>
      <use transform="translate(440.48975 0)scale(0.996264)" xlink:href="#CMR17-68"/>
      <use transform="translate(491.38512 0)scale(0.996264)" xlink:href="#CMR17-65"/>
      <use transform="translate(531.87078 0)scale(0.996264)" xlink:href="#CMR17-75"/>
      <use transform="translate(582.76615 0)scale(0.996264)" xlink:href="#CMR17-72"/>
      <use transform="translate(618.046918 0)scale(0.996264)" xlink:href="#CMR17-69"/>
      <use transform="translate(642.917976 0)scale(0.996264)" xlink:href="#CMR17-73"/>
      <use transform="translate(678.719314 0)scale(0.996264)" xlink:href="#CMR17-74"/>
      <use transform="translate(714.000081 0)scale(0.996264)" xlink:href="#CMR17-69"/>
      <use transform="translate(738.87114 0)scale(0.996264)" xlink:href="#CMR17-63"/>
      <use transform="translate(809.432767 0)scale(0.996264)" xlink:href="#CMR17-73"/>
      <use transform="translate(845.234104 0)scale(0.996264)" xlink:href="#CMR17-65"/>
      <use transform="translate(885.719765 0)scale(0.996264)" xlink:href="#CMR17-61"/>
      <use transform="translate(931.410242 0)scale(0.996264)" xlink:href="#CMR17-72"/>
      <use transform="translate(966.69101 0)scale(0.996264)" xlink:href="#CMR17-63"/>
      <use transform="translate(1004.574216 0)scale(0.996264)" xlink:href="#CMR17-68"/>
      <use transform="translate(1085.545552 0)scale(0.996264)" xlink:href="#CMR17-6f"/>
      <use transform="translate(1131.23603 0)scale(0.996264)" xlink:href="#CMR17-70"/>
      <use transform="translate(1184.733838 0)scale(0.996264)" xlink:href="#CMR17-65"/>
      <use transform="translate(1225.219499 0)scale(0.996264)" xlink:href="#CMR17-72"/>
      <use transform="translate(1260.500266 0)scale(0.996264)" xlink:href="#CMR17-61"/>
      <use transform="translate(1306.190743 0)scale(0.996264)" xlink:href="#CMR17-74"/>
      <use transform="translate(1341.471511 0)scale(0.996264)" xlink:href="#CMR17-6f"/>
      <use transform="translate(1387.161988 0)scale(0.996264)" xlink:href="#CMR17-72"/>
      <use transform="translate(1422.442756 0)scale(0.996264)" xlink:href="#CMR17-73"/>
     </g>
    </g>
   </g>
   <g id="matplotlib.axis_2">
    <g id="ytick_1">
     <g id="line2d_1">
      <path clip-path="url(#p6f1a3dcbf6)" d="M 72.334997 358.659186 
L 844.991029 358.659186 
" style="fill:none;stroke:#ffffff;stroke-linecap:round;"/>
     </g>
     <g id="text_14">
      <!-- $\mathdefault{0.0}$ -->
      <g style="fill:#262626;" transform="translate(39.376352 365.508501)scale(0.198 -0.198)">
       <defs>
        <path d="M 2688 2025 
C 2688 2416 2682 3080 2413 3591 
C 2176 4039 1798 4198 1466 4198 
C 1158 4198 768 4058 525 3597 
C 269 3118 243 2524 243 2025 
C 243 1661 250 1106 448 619 
C 723 -39 1216 -128 1466 -128 
C 1760 -128 2208 -7 2470 600 
C 2662 1042 2688 1559 2688 2025 
z
M 1466 -26 
C 1056 -26 813 325 723 812 
C 653 1188 653 1738 653 2096 
C 653 2588 653 2997 736 3387 
C 858 3929 1216 4096 1466 4096 
C 1728 4096 2067 3923 2189 3400 
C 2272 3036 2278 2607 2278 2096 
C 2278 1680 2278 1169 2202 792 
C 2067 95 1690 -26 1466 -26 
z
" id="CMR17-30" transform="scale(0.015625)"/>
        <path d="M 1178 307 
C 1178 492 1024 619 870 619 
C 685 619 557 466 557 313 
C 557 128 710 0 864 0 
C 1050 0 1178 153 1178 307 
z
" id="CMMI12-3a" transform="scale(0.015625)"/>
       </defs>
       <use transform="scale(0.996264)" xlink:href="#CMR17-30"/>
       <use transform="translate(45.690477 0)scale(0.996264)" xlink:href="#CMMI12-3a"/>
       <use transform="translate(72.787654 0)scale(0.996264)" xlink:href="#CMR17-30"/>
      </g>
     </g>
    </g>
    <g id="ytick_2">
     <g id="line2d_2">
      <path clip-path="url(#p6f1a3dcbf6)" d="M 72.334997 316.818806 
L 844.991029 316.818806 
" style="fill:none;stroke:#ffffff;stroke-linecap:round;"/>
     </g>
     <g id="text_15">
      <!-- $\mathdefault{2.5}$ -->
      <g style="fill:#262626;" transform="translate(39.376352 323.668122)scale(0.198 -0.198)">
       <defs>
        <path d="M 2669 989 
L 2554 989 
C 2490 536 2438 459 2413 420 
C 2381 369 1920 369 1830 369 
L 602 369 
C 832 619 1280 1072 1824 1597 
C 2214 1967 2669 2402 2669 3035 
C 2669 3790 2067 4224 1395 4224 
C 691 4224 262 3604 262 3030 
C 262 2780 448 2748 525 2748 
C 589 2748 781 2787 781 3010 
C 781 3207 614 3264 525 3264 
C 486 3264 448 3258 422 3245 
C 544 3790 915 4058 1306 4058 
C 1862 4058 2227 3617 2227 3035 
C 2227 2479 1901 2000 1536 1584 
L 262 146 
L 262 0 
L 2515 0 
L 2669 989 
z
" id="CMR17-32" transform="scale(0.015625)"/>
        <path d="M 730 3692 
C 794 3666 1056 3584 1325 3584 
C 1920 3584 2246 3911 2432 4100 
C 2432 4157 2432 4192 2394 4192 
C 2387 4192 2374 4192 2323 4163 
C 2099 4058 1837 3973 1517 3973 
C 1325 3973 1037 3999 723 4139 
C 653 4171 640 4171 634 4171 
C 602 4171 595 4164 595 4037 
L 595 2203 
C 595 2089 595 2057 659 2057 
C 691 2057 704 2070 736 2114 
C 941 2401 1222 2522 1542 2522 
C 1766 2522 2246 2382 2246 1289 
C 2246 1085 2246 715 2054 421 
C 1894 159 1645 25 1370 25 
C 947 25 518 320 403 814 
C 429 807 480 795 506 795 
C 589 795 749 840 749 1038 
C 749 1210 627 1280 506 1280 
C 358 1280 262 1190 262 1011 
C 262 454 704 -128 1382 -128 
C 2042 -128 2669 440 2669 1264 
C 2669 2030 2170 2624 1549 2624 
C 1222 2624 947 2503 730 2274 
L 730 3692 
z
" id="CMR17-35" transform="scale(0.015625)"/>
       </defs>
       <use transform="scale(0.996264)" xlink:href="#CMR17-32"/>
       <use transform="translate(45.690477 0)scale(0.996264)" xlink:href="#CMMI12-3a"/>
       <use transform="translate(72.787654 0)scale(0.996264)" xlink:href="#CMR17-35"/>
      </g>
     </g>
    </g>
    <g id="ytick_3">
     <g id="line2d_3">
      <path clip-path="url(#p6f1a3dcbf6)" d="M 72.334997 274.978427 
L 844.991029 274.978427 
" style="fill:none;stroke:#ffffff;stroke-linecap:round;"/>
     </g>
     <g id="text_16">
      <!-- $\mathdefault{5.0}$ -->
      <g style="fill:#262626;" transform="translate(39.376352 281.827742)scale(0.198 -0.198)">
       <use transform="scale(0.996264)" xlink:href="#CMR17-35"/>
       <use transform="translate(45.690477 0)scale(0.996264)" xlink:href="#CMMI12-3a"/>
       <use transform="translate(72.787654 0)scale(0.996264)" xlink:href="#CMR17-30"/>
      </g>
     </g>
    </g>
    <g id="ytick_4">
     <g id="line2d_4">
      <path clip-path="url(#p6f1a3dcbf6)" d="M 72.334997 233.138048 
L 844.991029 233.138048 
" style="fill:none;stroke:#ffffff;stroke-linecap:round;"/>
     </g>
     <g id="text_17">
      <!-- $\mathdefault{7.5}$ -->
      <g style="fill:#262626;" transform="translate(39.376352 239.987363)scale(0.198 -0.198)">
       <defs>
        <path d="M 2886 3941 
L 2886 4081 
L 1382 4081 
C 634 4081 621 4165 595 4288 
L 480 4288 
L 294 3094 
L 410 3094 
C 429 3215 474 3540 550 3661 
C 589 3712 1062 3712 1171 3712 
L 2579 3712 
L 1869 2661 
C 1395 1954 1069 999 1069 165 
C 1069 89 1069 -128 1299 -128 
C 1530 -128 1530 89 1530 171 
L 1530 465 
C 1530 1508 1709 2196 2003 2636 
L 2886 3941 
z
" id="CMR17-37" transform="scale(0.015625)"/>
       </defs>
       <use transform="scale(0.996264)" xlink:href="#CMR17-37"/>
       <use transform="translate(45.690477 0)scale(0.996264)" xlink:href="#CMMI12-3a"/>
       <use transform="translate(72.787654 0)scale(0.996264)" xlink:href="#CMR17-35"/>
      </g>
     </g>
    </g>
    <g id="ytick_5">
     <g id="line2d_5">
      <path clip-path="url(#p6f1a3dcbf6)" d="M 72.334997 191.297669 
L 844.991029 191.297669 
" style="fill:none;stroke:#ffffff;stroke-linecap:round;"/>
     </g>
     <g id="text_18">
      <!-- $\mathdefault{10.0}$ -->
      <g style="fill:#262626;" transform="translate(30.329649 198.146984)scale(0.198 -0.198)">
       <defs>
        <path d="M 1702 4058 
C 1702 4192 1696 4192 1606 4192 
C 1357 3916 979 3827 621 3827 
C 602 3827 570 3827 563 3808 
C 557 3795 557 3782 557 3648 
C 755 3648 1088 3686 1344 3839 
L 1344 461 
C 1344 236 1331 160 781 160 
L 589 160 
L 589 0 
C 896 0 1216 0 1523 0 
C 1830 0 2150 0 2458 0 
L 2458 160 
L 2266 160 
C 1715 160 1702 230 1702 458 
L 1702 4058 
z
" id="CMR17-31" transform="scale(0.015625)"/>
       </defs>
       <use transform="scale(0.996264)" xlink:href="#CMR17-31"/>
       <use transform="translate(45.690477 0)scale(0.996264)" xlink:href="#CMR17-30"/>
       <use transform="translate(91.380954 0)scale(0.996264)" xlink:href="#CMMI12-3a"/>
       <use transform="translate(118.478131 0)scale(0.996264)" xlink:href="#CMR17-30"/>
      </g>
     </g>
    </g>
    <g id="ytick_6">
     <g id="line2d_6">
      <path clip-path="url(#p6f1a3dcbf6)" d="M 72.334997 149.457289 
L 844.991029 149.457289 
" style="fill:none;stroke:#ffffff;stroke-linecap:round;"/>
     </g>
     <g id="text_19">
      <!-- $\mathdefault{12.5}$ -->
      <g style="fill:#262626;" transform="translate(30.329649 156.306605)scale(0.198 -0.198)">
       <use transform="scale(0.996264)" xlink:href="#CMR17-31"/>
       <use transform="translate(45.690477 0)scale(0.996264)" xlink:href="#CMR17-32"/>
       <use transform="translate(91.380954 0)scale(0.996264)" xlink:href="#CMMI12-3a"/>
       <use transform="translate(118.478131 0)scale(0.996264)" xlink:href="#CMR17-35"/>
      </g>
     </g>
    </g>
    <g id="ytick_7">
     <g id="line2d_7">
      <path clip-path="url(#p6f1a3dcbf6)" d="M 72.334997 107.61691 
L 844.991029 107.61691 
" style="fill:none;stroke:#ffffff;stroke-linecap:round;"/>
     </g>
     <g id="text_20">
      <!-- $\mathdefault{15.0}$ -->
      <g style="fill:#262626;" transform="translate(30.329649 114.466225)scale(0.198 -0.198)">
       <use transform="scale(0.996264)" xlink:href="#CMR17-31"/>
       <use transform="translate(45.690477 0)scale(0.996264)" xlink:href="#CMR17-35"/>
       <use transform="translate(91.380954 0)scale(0.996264)" xlink:href="#CMMI12-3a"/>
       <use transform="translate(118.478131 0)scale(0.996264)" xlink:href="#CMR17-30"/>
      </g>
     </g>
    </g>
    <g id="ytick_8">
     <g id="line2d_8">
      <path clip-path="url(#p6f1a3dcbf6)" d="M 72.334997 65.776531 
L 844.991029 65.776531 
" style="fill:none;stroke:#ffffff;stroke-linecap:round;"/>
     </g>
     <g id="text_21">
      <!-- $\mathdefault{17.5}$ -->
      <g style="fill:#262626;" transform="translate(30.329649 72.625846)scale(0.198 -0.198)">
       <use transform="scale(0.996264)" xlink:href="#CMR17-31"/>
       <use transform="translate(45.690477 0)scale(0.996264)" xlink:href="#CMR17-37"/>
       <use transform="translate(91.380954 0)scale(0.996264)" xlink:href="#CMMI12-3a"/>
       <use transform="translate(118.478131 0)scale(0.996264)" xlink:href="#CMR17-35"/>
      </g>
     </g>
    </g>
    <g id="ytick_9">
     <g id="line2d_9">
      <path clip-path="url(#p6f1a3dcbf6)" d="M 72.334997 23.936152 
L 844.991029 23.936152 
" style="fill:none;stroke:#ffffff;stroke-linecap:round;"/>
     </g>
     <g id="text_22">
      <!-- $\mathdefault{20.0}$ -->
      <g style="fill:#262626;" transform="translate(30.329649 30.785467)scale(0.198 -0.198)">
       <use transform="scale(0.996264)" xlink:href="#CMR17-32"/>
       <use transform="translate(45.690477 0)scale(0.996264)" xlink:href="#CMR17-30"/>
       <use transform="translate(91.380954 0)scale(0.996264)" xlink:href="#CMMI12-3a"/>
       <use transform="translate(118.478131 0)scale(0.996264)" xlink:href="#CMR17-30"/>
      </g>
     </g>
    </g>
    <g id="text_23">
     <!-- Number of search operators -->
     <g style="fill:#262626;" transform="translate(22.14396 302.342573)rotate(-90)scale(0.216 -0.216)">
      <defs>
       <path d="M 1312 4250 
C 1267 4320 1261 4320 1139 4320 
L 326 4320 
L 326 4160 
L 448 4160 
C 704 4160 819 4129 838 4122 
L 838 610 
C 838 451 838 153 326 153 
L 326 -13 
C 474 0 742 0 902 0 
C 1062 0 1331 0 1478 -13 
L 1478 153 
C 966 153 966 451 966 610 
L 966 4033 
C 1011 3995 1011 3982 1056 3919 
L 3430 76 
C 3475 0 3494 0 3526 0 
C 3590 0 3590 19 3590 139 
L 3590 3705 
C 3590 3863 3590 4160 4102 4160 
L 4102 4326 
C 3955 4320 3686 4320 3526 4320 
C 3366 4320 3098 4320 2950 4326 
L 2950 4160 
C 3462 4160 3462 3862 3462 3703 
L 3462 763 
L 1312 4250 
z
" id="CMR17-4e" transform="scale(0.015625)"/>
       <path d="M 960 4396 
L 198 4326 
L 198 4160 
C 576 4160 634 4122 634 3817 
L 634 -13 
L 749 -13 
L 934 441 
C 1120 141 1395 -64 1766 -64 
C 2406 -64 3053 500 3053 1370 
C 3053 2188 2477 2790 1830 2790 
C 1434 2790 1152 2579 960 2330 
L 960 4396 
z
M 973 2004 
C 973 2118 973 2138 1062 2272 
C 1312 2657 1670 2688 1792 2688 
C 1984 2688 2643 2585 2643 1376 
C 2643 108 1888 38 1734 38 
C 1536 38 1248 114 1043 486 
C 973 608 973 621 973 735 
L 973 2004 
z
" id="CMR17-62" transform="scale(0.015625)"/>
      </defs>
      <use transform="scale(0.996264)" xlink:href="#CMR17-4e"/>
      <use transform="translate(69.07243 0)scale(0.996264)" xlink:href="#CMR17-75"/>
      <use transform="translate(119.9678 0)scale(0.996264)" xlink:href="#CMR17-6d"/>
      <use transform="translate(194.284936 0)scale(0.996264)" xlink:href="#CMR17-62"/>
      <use transform="translate(247.782744 0)scale(0.996264)" xlink:href="#CMR17-65"/>
      <use transform="translate(288.268404 0)scale(0.996264)" xlink:href="#CMR17-72"/>
      <use transform="translate(353.625139 0)scale(0.996264)" xlink:href="#CMR17-6f"/>
      <use transform="translate(399.315616 0)scale(0.996264)" xlink:href="#CMR17-66"/>
      <use transform="translate(456.865095 0)scale(0.996264)" xlink:href="#CMR17-73"/>
      <use transform="translate(492.666432 0)scale(0.996264)" xlink:href="#CMR17-65"/>
      <use transform="translate(533.152093 0)scale(0.996264)" xlink:href="#CMR17-61"/>
      <use transform="translate(578.84257 0)scale(0.996264)" xlink:href="#CMR17-72"/>
      <use transform="translate(614.123338 0)scale(0.996264)" xlink:href="#CMR17-63"/>
      <use transform="translate(652.006544 0)scale(0.996264)" xlink:href="#CMR17-68"/>
      <use transform="translate(732.97788 0)scale(0.996264)" xlink:href="#CMR17-6f"/>
      <use transform="translate(778.668357 0)scale(0.996264)" xlink:href="#CMR17-70"/>
      <use transform="translate(832.166166 0)scale(0.996264)" xlink:href="#CMR17-65"/>
      <use transform="translate(872.651826 0)scale(0.996264)" xlink:href="#CMR17-72"/>
      <use transform="translate(907.932594 0)scale(0.996264)" xlink:href="#CMR17-61"/>
      <use transform="translate(953.623071 0)scale(0.996264)" xlink:href="#CMR17-74"/>
      <use transform="translate(988.903839 0)scale(0.996264)" xlink:href="#CMR17-6f"/>
      <use transform="translate(1034.594316 0)scale(0.996264)" xlink:href="#CMR17-72"/>
      <use transform="translate(1069.875084 0)scale(0.996264)" xlink:href="#CMR17-73"/>
     </g>
    </g>
   </g>
   <g id="patch_3">
    <path clip-path="url(#p6f1a3dcbf6)" d="M 78.773798 358.659186 
L 91.651398 358.659186 
L 91.651398 291.714579 
L 78.773798 291.714579 
z
" style="fill:#3274a1;stroke:#ffffff;stroke-linejoin:miter;"/>
   </g>
   <g id="patch_4">
    <path clip-path="url(#p6f1a3dcbf6)" d="M 143.1618 358.659186 
L 156.039401 358.659186 
L 156.039401 341.923034 
L 143.1618 341.923034 
z
" style="fill:#3274a1;stroke:#ffffff;stroke-linejoin:miter;"/>
   </g>
   <g id="patch_5">
    <path clip-path="url(#p6f1a3dcbf6)" d="M 207.549803 358.659186 
L 220.427403 358.659186 
L 220.427403 258.242276 
L 207.549803 258.242276 
z
" style="fill:#3274a1;stroke:#ffffff;stroke-linejoin:miter;"/>
   </g>
   <g id="patch_6">
    <path clip-path="url(#p6f1a3dcbf6)" d="M 271.937805 358.659186 
L 284.815406 358.659186 
L 284.815406 308.450731 
L 271.937805 308.450731 
z
" style="fill:#3274a1;stroke:#ffffff;stroke-linejoin:miter;"/>
   </g>
   <g id="patch_7">
    <path clip-path="url(#p6f1a3dcbf6)" d="M 336.325808 358.659186 
L 349.203409 358.659186 
L 349.203409 23.936152 
L 336.325808 23.936152 
z
" style="fill:#3274a1;stroke:#ffffff;stroke-linejoin:miter;"/>
   </g>
   <g id="patch_8">
    <path clip-path="url(#p6f1a3dcbf6)" d="M 400.713811 358.659186 
L 413.591411 358.659186 
L 413.591411 308.450731 
L 400.713811 308.450731 
z
" style="fill:#3274a1;stroke:#ffffff;stroke-linejoin:miter;"/>
   </g>
   <g id="patch_9">
    <path clip-path="url(#p6f1a3dcbf6)" d="M 465.101813 358.659186 
L 477.979414 358.659186 
L 477.979414 341.923034 
L 465.101813 341.923034 
z
" style="fill:#3274a1;stroke:#ffffff;stroke-linejoin:miter;"/>
   </g>
   <g id="patch_10">
    <path clip-path="url(#p6f1a3dcbf6)" d="M 529.489816 358.659186 
L 542.367416 358.659186 
L 542.367416 308.450731 
L 529.489816 308.450731 
z
" style="fill:#3274a1;stroke:#ffffff;stroke-linejoin:miter;"/>
   </g>
   <g id="patch_11">
    <path clip-path="url(#p6f1a3dcbf6)" d="M 593.877819 358.659186 
L 606.755419 358.659186 
L 606.755419 308.450731 
L 593.877819 308.450731 
z
" style="fill:#3274a1;stroke:#ffffff;stroke-linejoin:miter;"/>
   </g>
   <g id="patch_12">
    <path clip-path="url(#p6f1a3dcbf6)" d="M 658.265821 358.659186 
L 671.143422 358.659186 
L 671.143422 341.923034 
L 658.265821 341.923034 
z
" style="fill:#3274a1;stroke:#ffffff;stroke-linejoin:miter;"/>
   </g>
   <g id="patch_13">
    <path clip-path="url(#p6f1a3dcbf6)" d="M 722.653824 358.659186 
L 735.531424 358.659186 
L 735.531424 341.923034 
L 722.653824 341.923034 
z
" style="fill:#3274a1;stroke:#ffffff;stroke-linejoin:miter;"/>
   </g>
   <g id="patch_14">
    <path clip-path="url(#p6f1a3dcbf6)" d="M 787.041826 358.659186 
L 799.919427 358.659186 
L 799.919427 258.242276 
L 787.041826 258.242276 
z
" style="fill:#3274a1;stroke:#ffffff;stroke-linejoin:miter;"/>
   </g>
   <g id="patch_15">
    <path clip-path="url(#p6f1a3dcbf6)" d="M 91.651398 358.659186 
L 104.528999 358.659186 
L 104.528999 308.450731 
L 91.651398 308.450731 
z
" style="fill:#e1812c;stroke:#ffffff;stroke-linejoin:miter;"/>
   </g>
   <g id="patch_16">
    <path clip-path="url(#p6f1a3dcbf6)" d="M 156.039401 358.659186 
L 168.917001 358.659186 
L 168.917001 341.923034 
L 156.039401 341.923034 
z
" style="fill:#e1812c;stroke:#ffffff;stroke-linejoin:miter;"/>
   </g>
   <g id="patch_17">
    <path clip-path="url(#p6f1a3dcbf6)" d="M 220.427403 358.659186 
L 233.305004 358.659186 
L 233.305004 258.242276 
L 220.427403 258.242276 
z
" style="fill:#e1812c;stroke:#ffffff;stroke-linejoin:miter;"/>
   </g>
   <g id="patch_18">
    <path clip-path="url(#p6f1a3dcbf6)" d="M 284.815406 358.659186 
L 297.693006 358.659186 
L 297.693006 308.450731 
L 284.815406 308.450731 
z
" style="fill:#e1812c;stroke:#ffffff;stroke-linejoin:miter;"/>
   </g>
   <g id="patch_19">
    <path clip-path="url(#p6f1a3dcbf6)" d="M 349.203409 358.659186 
L 362.081009 358.659186 
L 362.081009 23.936152 
L 349.203409 23.936152 
z
" style="fill:#e1812c;stroke:#ffffff;stroke-linejoin:miter;"/>
   </g>
   <g id="patch_20">
    <path clip-path="url(#p6f1a3dcbf6)" d="M 413.591411 358.659186 
L 426.469012 358.659186 
L 426.469012 308.450731 
L 413.591411 308.450731 
z
" style="fill:#e1812c;stroke:#ffffff;stroke-linejoin:miter;"/>
   </g>
   <g id="patch_21">
    <path clip-path="url(#p6f1a3dcbf6)" d="M 477.979414 358.659186 
L 490.857014 358.659186 
L 490.857014 341.923034 
L 477.979414 341.923034 
z
" style="fill:#e1812c;stroke:#ffffff;stroke-linejoin:miter;"/>
   </g>
   <g id="patch_22">
    <path clip-path="url(#p6f1a3dcbf6)" d="M 542.367416 358.659186 
L 555.245017 358.659186 
L 555.245017 308.450731 
L 542.367416 308.450731 
z
" style="fill:#e1812c;stroke:#ffffff;stroke-linejoin:miter;"/>
   </g>
   <g id="patch_23">
    <path clip-path="url(#p6f1a3dcbf6)" d="M 606.755419 358.659186 
L 619.63302 358.659186 
L 619.63302 308.450731 
L 606.755419 308.450731 
z
" style="fill:#e1812c;stroke:#ffffff;stroke-linejoin:miter;"/>
   </g>
   <g id="patch_24">
    <path clip-path="url(#p6f1a3dcbf6)" d="M 671.143422 358.659186 
L 684.021022 358.659186 
L 684.021022 341.923034 
L 671.143422 341.923034 
z
" style="fill:#e1812c;stroke:#ffffff;stroke-linejoin:miter;"/>
   </g>
   <g id="patch_25">
    <path clip-path="url(#p6f1a3dcbf6)" d="M 735.531424 358.659186 
L 748.409025 358.659186 
L 748.409025 341.923034 
L 735.531424 341.923034 
z
" style="fill:#e1812c;stroke:#ffffff;stroke-linejoin:miter;"/>
   </g>
   <g id="patch_26">
    <path clip-path="url(#p6f1a3dcbf6)" d="M 799.919427 358.659186 
L 812.797027 358.659186 
L 812.797027 258.242276 
L 799.919427 258.242276 
z
" style="fill:#e1812c;stroke:#ffffff;stroke-linejoin:miter;"/>
   </g>
   <g id="patch_27">
    <path clip-path="url(#p6f1a3dcbf6)" d="M 104.528999 358.659186 
L 117.406599 358.659186 
L 117.406599 308.450731 
L 104.528999 308.450731 
z
" style="fill:#3a923a;stroke:#ffffff;stroke-linejoin:miter;"/>
   </g>
   <g id="patch_28">
    <path clip-path="url(#p6f1a3dcbf6)" d="M 168.917001 358.659186 
L 181.794602 358.659186 
L 181.794602 341.923034 
L 168.917001 341.923034 
z
" style="fill:#3a923a;stroke:#ffffff;stroke-linejoin:miter;"/>
   </g>
   <g id="patch_29">
    <path clip-path="url(#p6f1a3dcbf6)" d="M 233.305004 358.659186 
L 246.182604 358.659186 
L 246.182604 258.242276 
L 233.305004 258.242276 
z
" style="fill:#3a923a;stroke:#ffffff;stroke-linejoin:miter;"/>
   </g>
   <g id="patch_30">
    <path clip-path="url(#p6f1a3dcbf6)" d="M 297.693006 358.659186 
L 310.570607 358.659186 
L 310.570607 308.450731 
L 297.693006 308.450731 
z
" style="fill:#3a923a;stroke:#ffffff;stroke-linejoin:miter;"/>
   </g>
   <g id="patch_31">
    <path clip-path="url(#p6f1a3dcbf6)" d="M 362.081009 358.659186 
L 374.95861 358.659186 
L 374.95861 23.936152 
L 362.081009 23.936152 
z
" style="fill:#3a923a;stroke:#ffffff;stroke-linejoin:miter;"/>
   </g>
   <g id="patch_32">
    <path clip-path="url(#p6f1a3dcbf6)" d="M 426.469012 358.659186 
L 439.346612 358.659186 
L 439.346612 308.450731 
L 426.469012 308.450731 
z
" style="fill:#3a923a;stroke:#ffffff;stroke-linejoin:miter;"/>
   </g>
   <g id="patch_33">
    <path clip-path="url(#p6f1a3dcbf6)" d="M 490.857014 358.659186 
L 503.734615 358.659186 
L 503.734615 341.923034 
L 490.857014 341.923034 
z
" style="fill:#3a923a;stroke:#ffffff;stroke-linejoin:miter;"/>
   </g>
   <g id="patch_34">
    <path clip-path="url(#p6f1a3dcbf6)" d="M 555.245017 358.659186 
L 568.122618 358.659186 
L 568.122618 308.450731 
L 555.245017 308.450731 
z
" style="fill:#3a923a;stroke:#ffffff;stroke-linejoin:miter;"/>
   </g>
   <g id="patch_35">
    <path clip-path="url(#p6f1a3dcbf6)" d="M 619.63302 358.659186 
L 632.51062 358.659186 
L 632.51062 308.450731 
L 619.63302 308.450731 
z
" style="fill:#3a923a;stroke:#ffffff;stroke-linejoin:miter;"/>
   </g>
   <g id="patch_36">
    <path clip-path="url(#p6f1a3dcbf6)" d="M 684.021022 358.659186 
L 696.898623 358.659186 
L 696.898623 341.923034 
L 684.021022 341.923034 
z
" style="fill:#3a923a;stroke:#ffffff;stroke-linejoin:miter;"/>
   </g>
   <g id="patch_37">
    <path clip-path="url(#p6f1a3dcbf6)" d="M 748.409025 358.659186 
L 761.286625 358.659186 
L 761.286625 341.923034 
L 748.409025 341.923034 
z
" style="fill:#3a923a;stroke:#ffffff;stroke-linejoin:miter;"/>
   </g>
   <g id="patch_38">
    <path clip-path="url(#p6f1a3dcbf6)" d="M 812.797027 358.659186 
L 825.674628 358.659186 
L 825.674628 258.242276 
L 812.797027 258.242276 
z
" style="fill:#3a923a;stroke:#ffffff;stroke-linejoin:miter;"/>
   </g>
   <g id="patch_39">
    <path clip-path="url(#p6f1a3dcbf6)" d="M 117.406599 358.659186 
L 130.2842 358.659186 
L 130.2842 308.450731 
L 117.406599 308.450731 
z
" style="fill:#c03d3e;stroke:#ffffff;stroke-linejoin:miter;"/>
   </g>
   <g id="patch_40">
    <path clip-path="url(#p6f1a3dcbf6)" d="M 181.794602 358.659186 
L 194.672202 358.659186 
L 194.672202 341.923034 
L 181.794602 341.923034 
z
" style="fill:#c03d3e;stroke:#ffffff;stroke-linejoin:miter;"/>
   </g>
   <g id="patch_41">
    <path clip-path="url(#p6f1a3dcbf6)" d="M 246.182604 358.659186 
L 259.060205 358.659186 
L 259.060205 258.242276 
L 246.182604 258.242276 
z
" style="fill:#c03d3e;stroke:#ffffff;stroke-linejoin:miter;"/>
   </g>
   <g id="patch_42">
    <path clip-path="url(#p6f1a3dcbf6)" d="M 310.570607 358.659186 
L 323.448208 358.659186 
L 323.448208 308.450731 
L 310.570607 308.450731 
z
" style="fill:#c03d3e;stroke:#ffffff;stroke-linejoin:miter;"/>
   </g>
   <g id="patch_43">
    <path clip-path="url(#p6f1a3dcbf6)" d="M 374.95861 358.659186 
L 387.83621 358.659186 
L 387.83621 23.936152 
L 374.95861 23.936152 
z
" style="fill:#c03d3e;stroke:#ffffff;stroke-linejoin:miter;"/>
   </g>
   <g id="patch_44">
    <path clip-path="url(#p6f1a3dcbf6)" d="M 439.346612 358.659186 
L 452.224213 358.659186 
L 452.224213 308.450731 
L 439.346612 308.450731 
z
" style="fill:#c03d3e;stroke:#ffffff;stroke-linejoin:miter;"/>
   </g>
   <g id="patch_45">
    <path clip-path="url(#p6f1a3dcbf6)" d="M 503.734615 358.659186 
L 516.612215 358.659186 
L 516.612215 341.923034 
L 503.734615 341.923034 
z
" style="fill:#c03d3e;stroke:#ffffff;stroke-linejoin:miter;"/>
   </g>
   <g id="patch_46">
    <path clip-path="url(#p6f1a3dcbf6)" d="M 568.122618 358.659186 
L 581.000218 358.659186 
L 581.000218 308.450731 
L 568.122618 308.450731 
z
" style="fill:#c03d3e;stroke:#ffffff;stroke-linejoin:miter;"/>
   </g>
   <g id="patch_47">
    <path clip-path="url(#p6f1a3dcbf6)" d="M 632.51062 358.659186 
L 645.388221 358.659186 
L 645.388221 308.450731 
L 632.51062 308.450731 
z
" style="fill:#c03d3e;stroke:#ffffff;stroke-linejoin:miter;"/>
   </g>
   <g id="patch_48">
    <path clip-path="url(#p6f1a3dcbf6)" d="M 696.898623 358.659186 
L 709.776223 358.659186 
L 709.776223 341.923034 
L 696.898623 341.923034 
z
" style="fill:#c03d3e;stroke:#ffffff;stroke-linejoin:miter;"/>
   </g>
   <g id="patch_49">
    <path clip-path="url(#p6f1a3dcbf6)" d="M 761.286625 358.659186 
L 774.164226 358.659186 
L 774.164226 341.923034 
L 761.286625 341.923034 
z
" style="fill:#c03d3e;stroke:#ffffff;stroke-linejoin:miter;"/>
   </g>
   <g id="patch_50">
    <path clip-path="url(#p6f1a3dcbf6)" d="M 825.674628 358.659186 
L 838.552229 358.659186 
L 838.552229 258.242276 
L 825.674628 258.242276 
z
" style="fill:#c03d3e;stroke:#ffffff;stroke-linejoin:miter;"/>
   </g>
   <g id="patch_51">
    <path d="M 72.334997 358.659186 
L 72.334997 7.2 
" style="fill:none;stroke:#ffffff;stroke-linecap:square;stroke-linejoin:miter;stroke-width:1.25;"/>
   </g>
   <g id="patch_52">
    <path d="M 844.991029 358.659186 
L 844.991029 7.2 
" style="fill:none;stroke:#ffffff;stroke-linecap:square;stroke-linejoin:miter;stroke-width:1.25;"/>
   </g>
   <g id="patch_53">
    <path d="M 72.334997 358.659186 
L 844.991029 358.659186 
" style="fill:none;stroke:#ffffff;stroke-linecap:square;stroke-linejoin:miter;stroke-width:1.25;"/>
   </g>
   <g id="patch_54">
    <path d="M 72.334997 7.2 
L 844.991029 7.2 
" style="fill:none;stroke:#ffffff;stroke-linecap:square;stroke-linejoin:miter;stroke-width:1.25;"/>
   </g>
   <g id="legend_1">
    <g id="patch_55">
     <path d="M 670.671955 162.457126 
L 831.131029 162.457126 
Q 835.091029 162.457126 835.091029 158.497126 
L 835.091029 21.06 
Q 835.091029 17.1 831.131029 17.1 
L 670.671955 17.1 
Q 666.711955 17.1 666.711955 21.06 
L 666.711955 158.497126 
Q 666.711955 162.457126 670.671955 162.457126 
z
" style="fill:#eaeaf2;opacity:0.8;stroke:#cccccc;stroke-linejoin:miter;"/>
    </g>
    <g id="text_24">
     <!-- Selector -->
     <g style="fill:#262626;" transform="translate(717.046165 39.96396)scale(0.216 -0.216)">
      <defs>
       <path d="M 2803 4290 
C 2803 4404 2797 4411 2758 4411 
C 2720 4411 2707 4385 2682 4328 
L 2490 3907 
C 2246 4257 1875 4416 1472 4416 
C 819 4416 294 3901 294 3253 
C 294 3056 339 2776 557 2510 
C 794 2218 1018 2167 1530 2033 
C 1722 1982 2042 1899 2106 1874 
C 2470 1722 2662 1341 2662 985 
C 2662 527 2336 38 1779 38 
C 1094 38 454 419 410 1311 
C 403 1413 397 1419 352 1419 
C 301 1419 294 1413 294 1285 
L 294 -1 
C 294 -115 301 -122 339 -122 
C 384 -122 397 -90 486 108 
C 493 127 493 140 614 381 
C 934 -39 1472 -128 1779 -128 
C 2477 -128 2970 451 2970 1124 
C 2970 1454 2848 1708 2778 1823 
C 2509 2230 2221 2306 1914 2382 
C 1869 2402 1856 2402 1498 2490 
C 1152 2579 1005 2624 845 2796 
C 666 2992 602 3196 602 3399 
C 602 3812 934 4263 1478 4263 
C 2157 4263 2579 3786 2675 2993 
C 2694 2878 2701 2872 2746 2872 
C 2803 2872 2803 2891 2803 2999 
L 2803 4290 
z
" id="CMR17-53" transform="scale(0.015625)"/>
      </defs>
      <use transform="scale(0.996264)" xlink:href="#CMR17-53"/>
      <use transform="translate(50.89537 0)scale(0.996264)" xlink:href="#CMR17-65"/>
      <use transform="translate(91.38103 0)scale(0.996264)" xlink:href="#CMR17-6c"/>
      <use transform="translate(116.252089 0)scale(0.996264)" xlink:href="#CMR17-65"/>
      <use transform="translate(156.737749 0)scale(0.996264)" xlink:href="#CMR17-63"/>
      <use transform="translate(197.22341 0)scale(0.996264)" xlink:href="#CMR17-74"/>
      <use transform="translate(232.504177 0)scale(0.996264)" xlink:href="#CMR17-6f"/>
      <use transform="translate(278.194655 0)scale(0.996264)" xlink:href="#CMR17-72"/>
     </g>
    </g>
    <g id="patch_56">
     <path d="M 674.631955 67.909649 
L 714.231955 67.909649 
L 714.231955 54.049649 
L 674.631955 54.049649 
z
" style="fill:#3274a1;stroke:#ffffff;stroke-linejoin:miter;"/>
    </g>
    <g id="text_25">
     <!-- greedy -->
     <g style="fill:#262626;" transform="translate(730.071955 67.909649)scale(0.198 -0.198)">
      <use transform="scale(0.996264)" xlink:href="#CMR17-67"/>
      <use transform="translate(45.690477 0)scale(0.996264)" xlink:href="#CMR17-72"/>
      <use transform="translate(80.971245 0)scale(0.996264)" xlink:href="#CMR17-65"/>
      <use transform="translate(121.456905 0)scale(0.996264)" xlink:href="#CMR17-65"/>
      <use transform="translate(161.942566 0)scale(0.996264)" xlink:href="#CMR17-64"/>
      <use transform="translate(212.837936 0)scale(0.996264)" xlink:href="#CMR17-79"/>
     </g>
    </g>
    <g id="patch_57">
     <path d="M 674.631955 95.506518 
L 714.231955 95.506518 
L 714.231955 81.646518 
L 674.631955 81.646518 
z
" style="fill:#e1812c;stroke:#ffffff;stroke-linejoin:miter;"/>
    </g>
    <g id="text_26">
     <!-- all -->
     <g style="fill:#262626;" transform="translate(730.071955 95.506518)scale(0.198 -0.198)">
      <use transform="scale(0.996264)" xlink:href="#CMR17-61"/>
      <use transform="translate(45.690477 0)scale(0.996264)" xlink:href="#CMR17-6c"/>
      <use transform="translate(70.561536 0)scale(0.996264)" xlink:href="#CMR17-6c"/>
     </g>
    </g>
    <g id="patch_58">
     <path d="M 674.631955 123.103387 
L 714.231955 123.103387 
L 714.231955 109.243387 
L 674.631955 109.243387 
z
" style="fill:#3a923a;stroke:#ffffff;stroke-linejoin:miter;"/>
    </g>
    <g id="text_27">
     <!-- metropolis -->
     <g style="fill:#262626;" transform="translate(730.071955 123.103387)scale(0.198 -0.198)">
      <use transform="scale(0.996264)" xlink:href="#CMR17-6d"/>
      <use transform="translate(76.91959 0)scale(0.996264)" xlink:href="#CMR17-65"/>
      <use transform="translate(117.40525 0)scale(0.996264)" xlink:href="#CMR17-74"/>
      <use transform="translate(152.686018 0)scale(0.996264)" xlink:href="#CMR17-72"/>
      <use transform="translate(187.966786 0)scale(0.996264)" xlink:href="#CMR17-6f"/>
      <use transform="translate(233.657263 0)scale(0.996264)" xlink:href="#CMR17-70"/>
      <use transform="translate(287.155072 0)scale(0.996264)" xlink:href="#CMR17-6f"/>
      <use transform="translate(332.845549 0)scale(0.996264)" xlink:href="#CMR17-6c"/>
      <use transform="translate(357.716607 0)scale(0.996264)" xlink:href="#CMR17-69"/>
      <use transform="translate(382.587666 0)scale(0.996264)" xlink:href="#CMR17-73"/>
     </g>
    </g>
    <g id="patch_59">
     <path d="M 674.631955 150.700257 
L 714.231955 150.700257 
L 714.231955 136.840257 
L 674.631955 136.840257 
z
" style="fill:#c03d3e;stroke:#ffffff;stroke-linejoin:miter;"/>
    </g>
    <g id="text_28">
     <!-- probabilistic -->
     <g style="fill:#262626;" transform="translate(730.071955 150.700257)scale(0.198 -0.198)">
      <use transform="scale(0.996264)" xlink:href="#CMR17-70"/>
      <use transform="translate(50.89537 0)scale(0.996264)" xlink:href="#CMR17-72"/>
      <use transform="translate(86.176138 0)scale(0.996264)" xlink:href="#CMR17-6f"/>
      <use transform="translate(131.866615 0)scale(0.996264)" xlink:href="#CMR17-62"/>
      <use transform="translate(182.761984 0)scale(0.996264)" xlink:href="#CMR17-61"/>
      <use transform="translate(228.452462 0)scale(0.996264)" xlink:href="#CMR17-62"/>
      <use transform="translate(279.347831 0)scale(0.996264)" xlink:href="#CMR17-69"/>
      <use transform="translate(304.21889 0)scale(0.996264)" xlink:href="#CMR17-6c"/>
      <use transform="translate(329.089948 0)scale(0.996264)" xlink:href="#CMR17-69"/>
      <use transform="translate(353.961007 0)scale(0.996264)" xlink:href="#CMR17-73"/>
      <use transform="translate(389.762344 0)scale(0.996264)" xlink:href="#CMR17-74"/>
      <use transform="translate(425.043112 0)scale(0.996264)" xlink:href="#CMR17-69"/>
      <use transform="translate(449.914171 0)scale(0.996264)" xlink:href="#CMR17-63"/>
     </g>
    </g>
   </g>
  </g>
 </g>
 <defs>
  <clipPath id="p6f1a3dcbf6">
   <rect height="351.459186" width="772.656031" x="72.334997" y="7.2"/>
  </clipPath>
 </defs>
</svg>
